<svg xmlns="http://www.w3.org/2000/svg" xmlns:xlink="http://www.w3.org/1999/xlink" viewBox="0 0 660.11 399.84">
  <defs>
    <style>
      .a {
        fill: url(#a);
      }

      .b {
        isolation: isolate;
      }

      .c {
        clip-path: url(#c);
      }

      .d {
        opacity: 0.5;
        mix-blend-mode: color-dodge;
        fill: url(#d);
      }

      .e {
        fill: url(#e);
      }

      .f {
        fill: url(#f);
      }

      .g {
        fill: url(#g);
      }

      .h {
        fill: url(#h);
      }

      .i {
        fill: url(#i);
      }

      .j {
        mix-blend-mode: overlay;
      }

      .k {
        fill: #fff;
      }
    </style>
    <linearGradient id="a" x1="318.07" y1="352.94" x2="433.41" y2="14.94" gradientUnits="userSpaceOnUse">
      <stop offset="0" stop-color="#0c042e"/>
      <stop offset="0.33" stop-color="#221c3a"/>
      <stop offset="1" stop-color="#575757"/>
    </linearGradient>
    <clipPath id="c">
      <rect class="a" x="128.24" y="79.51" width="468" height="288"/>
    </clipPath>
    <linearGradient id="d" x1="235.66" y1="46.28" x2="353.66" y2="247.28" gradientUnits="userSpaceOnUse">
      <stop offset="0"/>
      <stop offset="0.23" stop-color="#050505"/>
      <stop offset="0.49" stop-color="#131313"/>
      <stop offset="0.77" stop-color="#292929"/>
      <stop offset="1" stop-color="#424242"/>
    </linearGradient>
    <linearGradient id="e" x1="179.15" y1="393.42" x2="291.81" y2="585.34" gradientTransform="matrix(0.97, -0.23, 0.23, 0.97, -144.87, -273.99)" xlink:href="#a"/>
    <linearGradient id="f" x1="458.64" y1="250.13" x2="544.64" y2="358.8" xlink:href="#a"/>
    <linearGradient id="g" x1="170.18" y1="269.43" x2="201.52" y2="324.76" gradientUnits="userSpaceOnUse">
      <stop offset="0" stop-color="#fc9512"/>
      <stop offset="0.35" stop-color="#fd5f35"/>
      <stop offset="0.79" stop-color="#fe225c"/>
      <stop offset="1" stop-color="#ff0a6c"/>
    </linearGradient>
    <linearGradient id="h" x1="509.43" y1="123.09" x2="434.1" y2="219.09" xlink:href="#a"/>
    <linearGradient id="i" x1="649.4" y1="139.61" x2="602.24" y2="66.16" gradientTransform="matrix(0.96, 0.03, 0.03, 0.98, -43.76, 35.18)" xlink:href="#g"/>
  </defs>
  <title>bg-modern-blob</title>
  <g class="b">
    <g>
      <rect class="a" x="128.24" y="79.51" width="468" height="288"/>
      <g class="c">
        <path class="d" d="M98.67,104.08c24.77-42,61-49.43,105.05-47.87,37.67,1.34,78.5,11.62,113.09-2.48S375,14,412.32,15.91c50.09,2.57,72.12,42.54,69.54,81.51-3.58,54-50.19,81-96.77,77.57-38.54-2.85-79.37-6.72-113.49,17.94-31.42,22.72-52.2,72.82-96.19,73.89C125.51,268,52.86,181.84,98.67,104.08Z"/>
        <g>
          <path class="e" d="M4.66,151.74c13.86-44.48,46-59.26,87.22-67.41,35.3-7,75.5-6.32,104.58-27S241.85,7.74,277,1.38C324.13-7.15,353.31,25.2,359.41,62c8.46,51-29,86.27-73,93.22-36.46,5.75-75.25,11.06-101.59,41.42-24.26,28-32.65,79.07-73.31,89.67C65.36,298.3-21,234,4.66,151.74Z"/>
          <path class="f" d="M624.12,293.5c-22.94,27.75-66,19.45-99,31.27-38,13.62-68.43,36.63-106.29,54.75-36.74,17.58-98.45-11.86-55.83-73.17,16.79-24.15,32.73-41.51,43.87-70.24,12.41-32,20.52-60.82,52.13-75.64C538.86,123.05,686.94,217.47,624.12,293.5Z"/>
          <path class="g" d="M233.57,250.35c19.49-19.34-2.71-38.45-27.89-15.79C188.5,250,179.39,272.94,164.84,289.8c-13.4,15.53-29.94,8.83-46.91,15.09-36.27,13.37,30,61.16,60.71,44.91,21.51-11.39,18.36-42.14,23.63-60.21C207.89,270.31,220.48,263.36,233.57,250.35Z"/>
          <path class="h" d="M414.78,101.72c18.51-21.92,52.75-14.93,79.12-24.07,30.39-10.53,54.84-28.6,85.16-42.71,29.43-13.7,78.35,10.29,43.86,58.79-13.58,19.09-26.43,32.79-35.56,55.59-10.16,25.38-16.87,48.28-42.19,59.82C481.25,238.27,364.07,161.76,414.78,101.72Z"/>
          <path class="i" d="M640.17,99c3.34-16.43,17.59-24.21,19.59-41.53,4.37-37.71-33.46-58-50.87-29.18C600,42.9,596.68,61.18,586.09,74.56c-10.74,13.58-27,15.5-40.26,25.29-24.42,18-31.49,51.25-61.1,64.81-68.31,31.26-65.52,71.6-15.52,73.58,41.84,1.66,53.17-54.21,106.89-53.41C663.47,186.14,632.93,134.7,640.17,99Z"/>
          <g class="j">
            <path class="k" d="M307.48,399.84H306.4c-23.82-.4-38.67-7.27-40.74-18.85-1.64-9.17,5-20.62,18.68-32.23,15.14-12.86,38.34-25.55,67.06-36.7,24.34-9.44,41.73-26.39,58.55-42.78,13-12.66,26.44-25.75,43-35.29,8.15-4.7,16.56-8,24.7-11.19,12.89-5,25.05-9.81,36.29-19.67,10.41-9.13,18.44-20.27,26.22-31,5.9-8.18,12-16.64,19.12-24.21,17.77-18.87,37.36-19.8,48.89-12.35,10.27,6.63,17.76,22.14,8,45.78-4.49,10.86-12.65,18.78-20.55,26.44-7.06,6.86-14.37,13.94-19,23.12l-.22-.11.22.11c-5.21,10.27-7.88,21.75-10.46,32.86-4,17.22-8.14,35-22,48.16-15.44,14.67-41.73,21.92-80.36,22.15-36.76.23-63,18.47-88.46,36.11C353.35,385.42,332.56,399.84,307.48,399.84ZM592.67,131.69c-10.07,0-21.91,4.71-33,16.54-7.1,7.54-13.19,16-19.09,24.15-7.79,10.8-15.84,22-26.29,31.13-11.3,9.91-23.51,14.7-36.43,19.76-8.13,3.18-16.52,6.47-24.64,11.15-16.49,9.51-29.91,22.58-42.88,35.22-16.86,16.43-34.29,33.41-58.72,42.89-28.67,11.13-51.81,23.79-66.92,36.61-13.54,11.49-20.12,22.77-18.51,31.76,2,11.33,16.7,18.05,40.26,18.44h1.07c24.93,0,45.65-14.38,67.57-29.6,25.48-17.68,51.84-36,88.75-36.2,38.49-.23,64.67-7.43,80-22,13.71-13,17.83-30.77,21.81-47.92,2.59-11.13,5.26-22.64,10.51-33,4.69-9.26,12-16.37,19.12-23.26,7.86-7.62,16-15.51,20.43-26.27,9.65-23.36,2.3-38.65-7.8-45.17A27.9,27.9,0,0,0,592.67,131.69Z"/>
          </g>
          <g class="j">
            <path class="k" d="M132.28,287.63q-1,0-1.95,0c-13.24-.45-24.14-5.66-29.89-14.28-8.43-12.65-5.56-33.4,19.85-51.26l.15.21-.15-.21C128.74,216.12,137,211,145,206c26.54-16.65,49.45-31,65.72-64.45,5.39-11.07,9.66-24.56,14.19-38.84,12.13-38.22,25.87-81.55,66.68-95C331.15-5.3,383.8,22.62,416,54.07c24.65,24.11,36.36,48.41,31.31,65-3.25,10.7-13.14,17.66-29.38,20.68-15.69,2.92-30.54,1.76-44.9.63-25-1.95-48.58-3.8-72.77,16.16-17.42,14.36-33.31,32-48.69,49.11-21.44,23.82-43.61,48.46-71,65.76C163.7,282,147.07,287.63,132.28,287.63ZM313.06,4.94A68.19,68.19,0,0,0,291.7,8.19c-40.57,13.33-54.27,56.52-66.36,94.63-4.53,14.3-8.82,27.81-14.22,38.91-16.33,33.56-39.3,48-65.9,64.65-8,5-16.2,10.16-24.64,16.09-25.14,17.67-28,38.13-19.72,50.57,11.22,16.82,42.09,21.52,79.4-2.05,27.32-17.27,49.47-41.88,70.89-65.67,15.39-17.1,31.3-34.78,48.74-49.17,24.35-20.09,48-18.23,73.12-16.26,14.33,1.12,29.15,2.28,44.78-.63,16-3,25.8-9.83,29-20.33,4.91-16.17-7-40.88-31.18-64.5C389.08,28.48,348.58,4.94,313.06,4.94Z"/>
          </g>
        </g>
      </g>
    </g>
  </g>
</svg>
