<?xml version="1.0" encoding="utf-8"?>
<!-- Generator: Adobe Illustrator 21.0.2, SVG Export Plug-In . SVG Version: 6.00 Build 0)  -->
<svg version="1.1" id="Layer_1" xmlns="http://www.w3.org/2000/svg" xmlns:xlink="http://www.w3.org/1999/xlink" x="0px" y="0px"
	 viewBox="0 0 43 34.9" style="enable-background:new 0 0 43 34.9;" xml:space="preserve">
<path d="M2,19.5c-0.3,0-0.5,0.2-0.5,0.5v12c0,0.8,0.7,1.5,1.5,1.5h10c0.3,0,0.5-0.2,0.5-0.5s-0.2-0.5-0.5-0.5H3
	c-0.3,0-0.5-0.2-0.5-0.5V20C2.5,19.7,2.3,19.5,2,19.5z M41,19.5c-0.3,0-0.5,0.2-0.5,0.5v12c0,0.3-0.2,0.5-0.5,0.5H19
	c-0.3,0-0.5,0.2-0.5,0.5s0.2,0.5,0.5,0.5h21c0.8,0,1.5-0.7,1.5-1.5V20C41.5,19.7,41.3,19.5,41,19.5z M18.5,1.2
	c0,0.3,0.2,0.5,0.5,0.5h21c0.3,0,0.5,0.2,0.5,0.5V14c0,0.3,0.2,0.5,0.5,0.5s0.5-0.2,0.5-0.5V2.2c0-0.8-0.7-1.5-1.5-1.5H19
	C18.7,0.7,18.5,0.9,18.5,1.2z M3,0.7c-0.8,0-1.5,0.7-1.5,1.5V14c0,0.3,0.2,0.5,0.5,0.5s0.5-0.2,0.5-0.5V2.2c0-0.3,0.2-0.5,0.5-0.5
	h10c0.3,0,0.5-0.2,0.5-0.5S13.3,0.7,13,0.7H3z M42,16.3H21.6c0.4-0.2,0.7-0.3,1-0.5c1.5-1.5,1.5-4.1,0-5.6c-1.5-1.5-4-1.5-5.5,0
	c-0.2,0.2-0.4,0.6-0.6,0.9V1c0-0.3-0.2-0.5-0.5-0.5c-0.3,0-0.5,0.2-0.5,0.5v15.3c-1.7-0.7-4.7-2.3-5.3-3.5C9.8,11.9,9.7,11,10,10.1
	s0.9-1.5,1.7-1.9c0.2-0.1,0.3-0.4,0.2-0.7c-0.1-0.2-0.4-0.3-0.7-0.2c-1,0.5-1.8,1.4-2.2,2.5s-0.3,2.3,0.2,3.3
	c0.6,1.2,2.6,2.4,4.3,3.2H1c-0.3,0-0.5,0.2-0.5,0.5s0.2,0.5,0.5,0.5h9.3c-0.4,0.2-0.7,0.4-1,0.6c-1.5,1.5-1.5,4,0,5.5
	c0.7,0.7,1.7,1.1,2.7,1.1s2-0.4,2.7-1.1c0.2-0.2,0.5-0.6,0.6-1V34c0,0.3,0.2,0.5,0.5,0.5s0.5-0.2,0.5-0.5V17.7
	c1.7,0.7,4.7,2,5.3,3.2c0.4,0.8,0.5,1.7,0.2,2.6c-0.3,0.9-0.9,1.5-1.7,1.9c-0.2,0.1-0.3,0.4-0.2,0.7c0.1,0.2,0.3,0.3,0.4,0.3
	c0.1,0,0.1,0,0.2-0.1c1-0.5,1.8-1.4,2.2-2.5s0.3-2.3-0.2-3.3c-0.6-1.2-2.6-2.4-4.3-3.2H42c0.3,0,0.5-0.2,0.5-0.5S42.3,16.3,42,16.3z
	 M17.8,10.9c0.5-0.5,1.3-0.8,2-0.8s1.5,0.3,2,0.8c1.1,1.1,1.1,2.9,0,4.1c-0.9,0.9-3.8,1.3-5.4,1.4C16.6,14.6,17,11.7,17.8,10.9z
	 M14.2,22.7c-1.1,1.1-3,1.1-4.1,0c-1.1-1.1-1.1-2.9,0-4.1c0.9-0.9,3.8-1.1,5.4-1.2C15.3,19.3,14.9,21.9,14.2,22.7z"/>
</svg>
