<svg xmlns="http://www.w3.org/2000/svg" xmlns:xlink="http://www.w3.org/1999/xlink" viewBox="0 0 149.29 159.29"><defs><style>.cls-1{fill:#4ac8eb;}.cls-2{isolation:isolate;}.cls-3{clip-path:url(#clip-path);}.cls-4,.cls-7{fill:#ecc19c;}.cls-5{fill:#eb6d4a;}.cls-6{fill:#543e36;}.cls-7{opacity:0.5;mix-blend-mode:multiply;}.cls-8{fill:#ac272c;}</style><clipPath id="clip-path"><circle class="cls-1" cx="74.64" cy="74.64" r="74.64"/></clipPath></defs><title>img-avatar-slug-7</title><g class="cls-2"><g id="Layer_2" data-name="Layer 2"><g id="Layer_18" data-name="Layer 18"><circle class="cls-1" cx="74.64" cy="74.64" r="74.64"/><g class="cls-3"><path class="cls-4" d="M107.89,41.88V66.69c0,.36,0,.72,0,1.08s0,.58,0,.87,0,.52,0,.78,0,.38,0,.56,0,.22,0,.33,0,.42-.07.62c0,.39-.08.78-.14,1.17,0,.1,0,.2,0,.29s-.06.39-.09.59v0l-.15.85c-.07.39-.15.78-.23,1.17l0,0a1.27,1.27,0,0,1,0,.17l0,0c0,.21-.09.42-.14.62a1.62,1.62,0,0,1-.07.27c0,.15-.07.29-.1.44s0,.17-.07.25,0,.15-.06.21c-.17.67-.37,1.32-.57,2-.1.31-.2.61-.3.92l0,.1-.29.83-.1.25c-.1.26-.2.52-.3.78s-.25.63-.38.94-.24.55-.36.83l-.06.14c-.14.29-.27.59-.41.87s-.29.6-.44.91c-.29.6-.61,1.19-.93,1.77l-.44.78a48,48,0,0,1-4.17,6.07q-.31.4-.64.78c-.3.37-.61.73-.92,1.08s-.55.62-.84.92c-.78.84-1.58,1.64-2.4,2.39-.16.16-.33.31-.51.46s-.55.5-.84.73-.45.38-.68.57c-.59.48-1.17.95-1.77,1.38-.24.19-.5.37-.75.54-.41.29-.82.57-1.24.84-.23.16-.47.3-.7.44-.83.51-1.67,1-2.5,1.4l-.61.3-.64.29-.81.34-.32.12c-.32.13-.64.25-1,.36s-.81.27-1.21.38l-.84.22-.06,0c-.28.07-.55.13-.83.18l-.22,0c-.23,0-.46.08-.69.11s-.65.09-1,.11l-.33,0-.77,0h0l-.76,0-.29,0c-.23,0-.47,0-.71-.07l-.16,0-.91-.15c-.26,0-.52-.1-.79-.16a23.44,23.44,0,0,1-4.28-1.44,31.29,31.29,0,0,1-3.74-2c-.63-.38-1.26-.79-1.88-1.22l-.93-.67q-1.46-1.06-2.88-2.32l-.78-.72-.77-.72q-1-.92-1.86-1.91l-.71-.78c-.65-.73-1.29-1.49-1.89-2.28-.24-.29-.46-.58-.68-.87q-1.24-1.64-2.34-3.42l-.58-1c-.23-.38-.45-.77-.67-1.17a44.56,44.56,0,0,1-2.22-4.57c-.1-.23-.2-.46-.28-.69s-.24-.6-.35-.89-.32-.86-.47-1.3-.29-.87-.42-1.31-.25-.85-.37-1.28-.25-.92-.36-1.4c0,0,0-.1,0-.15q-.23-1-.42-2c-.16-.88-.29-1.78-.39-2.68,0-.29-.07-.57-.09-.86s-.06-.6-.07-.9c0-.55-.07-1.1-.08-1.66,0-.36,0-.72,0-1.08V43.51A33.21,33.21,0,0,1,74.65,10.3h0a33.62,33.62,0,0,1,7.36.82,33.22,33.22,0,0,1,25.84,32.1C107.89,43.32,107.89,41.78,107.89,41.88Z"/><path class="cls-4" d="M117.95,159.28H31.4a43.06,43.06,0,0,1,2.31-14q.4-1.19.88-2.35h0c.31-.78.65-1.53,1-2.28a42.8,42.8,0,0,1,5.27-8.4c.52-.64,1.05-1.27,1.6-1.88.27-.31.55-.61.84-.91l.86-.88a43,43,0,0,1,4.67-4c.82-.61,1.66-1.18,2.52-1.74s1.75-1.07,2.64-1.56l0,0c.35-.19.69-.39,1-.6a25.75,25.75,0,0,0,2.93-2A27.28,27.28,0,0,0,68.34,97.19l6.31,0,6.49,0a27.26,27.26,0,0,0,10.25,21.36A22,22,0,0,0,93.2,120l.19.13c.29.2.59.39.9.57s.68.41,1,.6a.41.41,0,0,1,.15.07c.72.4,1.43.82,2.12,1.25.33.2.67.42,1,.65.68.43,1.34.91,2,1.4h0c.82.61,1.62,1.26,2.41,1.93s1.53,1.37,2.26,2.1A43.05,43.05,0,0,1,117.95,159.28Z"/><path class="cls-5" d="M117.95,159.28H31.4a43.06,43.06,0,0,1,2.31-14q.4-1.19.88-2.35h0c.31-.78.65-1.53,1-2.28a42.8,42.8,0,0,1,5.27-8.4c.52-.64,1.05-1.27,1.6-1.88.27-.31.55-.61.84-.91l.86-.88a43,43,0,0,1,4.67-4c.82-.61,1.66-1.18,2.52-1.74.45-.29.9-.56,1.35-.83s.86-.5,1.29-.73a0,0,0,0,1,0,0h0l1-.6A25.28,25.28,0,0,0,58,118.59l0,0a23.25,23.25,0,0,0,16.63,7h.07a23.3,23.3,0,0,0,16.67-7h0a22,22,0,0,0,1.8,1.35l.19.13.9.57c.33.2.68.4,1,.59a.83.83,0,0,1,.15.07c.38.21.78.43,1.15.66l1,.6c.33.2.67.42,1,.65.68.43,1.34.91,2,1.4h0c.82.62,1.63,1.26,2.41,1.94s1.53,1.37,2.26,2.1A43.05,43.05,0,0,1,117.95,159.28Z"/><path class="cls-6" d="M107.89,66.69c0,.36,0,.72,0,1.08s0,.58,0,.87,0,.52,0,.78,0,.38,0,.56,0,.22,0,.33,0,.42-.07.62c0,.39-.08.78-.14,1.17,0,.1,0,.2,0,.29s-.06.39-.09.59-.1.59-.15.87-.13.68-.2,1a1.51,1.51,0,0,1,0,.2c0,.06,0,.11,0,.17l0,0a.41.41,0,0,1,0,.11c0,.17-.07.34-.12.51a1.62,1.62,0,0,1-.07.27,4.48,4.48,0,0,1-.12.47,1.07,1.07,0,0,1,0,.22c0,.07,0,.15-.06.21-.17.67-.37,1.32-.57,2-.1.31-.2.61-.3.92l0,.1-.29.83-.1.25c-.1.26-.2.52-.3.78s-.25.63-.38.94-.24.55-.36.83l-.06.14c-.14.29-.27.59-.41.87s-.29.6-.44.91c-.29.6-.61,1.19-.93,1.77l-.44.78a48,48,0,0,1-4.17,6.07q-.31.4-.64.78c-.3.37-.61.73-.92,1.08s-.55.62-.84.92c-.78.84-1.58,1.64-2.4,2.39-.16.16-.33.31-.51.46s-.55.5-.84.73-.45.38-.68.57c-.59.48-1.17.95-1.77,1.38-.24.19-.5.37-.75.54-.41.29-.82.57-1.24.84-.23.16-.47.3-.7.44-.83.51-1.67,1-2.5,1.4l-.61.3-.64.29-.81.34-.32.12c-.32.13-.64.25-1,.36s-.81.27-1.21.38l-.84.22-.06,0c-.28.07-.55.13-.83.18l-.22,0c-.23,0-.46.08-.69.11s-.65.09-1,.11l-.33,0-.77,0h0l-.76,0-.29,0c-.23,0-.47,0-.71-.07l-.16,0-.91-.15c-.26,0-.52-.1-.79-.16a23.44,23.44,0,0,1-4.28-1.44,31.29,31.29,0,0,1-3.74-2c-.63-.38-1.25-.78-1.88-1.22l-.93-.67q-1.46-1.06-2.88-2.32l-.78-.72-.77-.72q-1-.92-1.86-1.91l-.71-.78c-.65-.73-1.29-1.49-1.89-2.28-.24-.29-.46-.58-.68-.87q-1.24-1.64-2.34-3.42l-.58-1c-.23-.38-.45-.77-.67-1.17a44.56,44.56,0,0,1-2.22-4.57c-.1-.23-.2-.46-.28-.69s-.24-.6-.35-.89-.32-.86-.47-1.3-.29-.87-.42-1.31-.25-.85-.37-1.28-.25-.92-.36-1.4c0,0,0-.1,0-.15q-.23-1-.42-2c-.16-.88-.29-1.78-.39-2.68,0-.29-.07-.57-.09-.86s-.06-.6-.07-.9c0-.55-.07-1.1-.08-1.66,0-.36,0-.72,0-1.08l5.3,10.43,9.11,4,10.78,1h0l8,.73h0l7.47.68h0L98.84,85Z"/><path class="cls-6" d="M74.71,71.93v8h0V92.34h0l0,0L42.56,76s0-.1,0-.15q-.23-1-.42-2c-.16-.88-.29-1.78-.39-2.68,0-.29-.07-.57-.09-.86s-.06-.6-.07-.9c0-.55-.07-1.1-.08-1.66,0-.36,0-.72,0-1.08V56.94c0,.14,0,.28,0,.42A32.47,32.47,0,0,0,42.63,65a32.94,32.94,0,0,0,2.08,5.6h0c2.14,4.45,5,7.46,7.64,8l.5.06a28.71,28.71,0,0,0,3.19.18c4.16,0,7.86-3.34,10.18-4.7l0,0,.35-.22.1-.06a16.5,16.5,0,0,1,7.93-1.84Z"/><path class="cls-6" d="M107.9,56.94v9.75a39.94,39.94,0,0,1-.65,7.17c-.17.93-.37,1.85-.6,2.77L99.11,87.5,74.69,92.33h0l0-20.41h.07a16.54,16.54,0,0,1,7.94,1.84l.09.06.36.22,0,0c2.33,1.35,6,4.7,10.18,4.7a28.71,28.71,0,0,0,3.19-.18l.51-.06c2.63-.49,5.5-3.51,7.63-8h0a32.94,32.94,0,0,0,2.08-5.6,32.12,32.12,0,0,0,1.17-7.71C107.9,57.14,107.9,57,107.9,56.94Z"/><ellipse class="cls-4" cx="74.67" cy="82.48" rx="8.14" ry="2.52"/><path class="cls-7" d="M74.65,10.3v149H31.4a43.06,43.06,0,0,1,2.31-14q.4-1.19.88-2.35h0c.31-.78.65-1.53,1-2.28a42.8,42.8,0,0,1,5.27-8.4c.52-.64,1.05-1.27,1.6-1.88.27-.31.55-.61.84-.91l.86-.88a43,43,0,0,1,4.67-4c.82-.61,1.66-1.18,2.52-1.74s1.75-1.08,2.64-1.57a0,0,0,0,1,0,0h0l1-.6A25.28,25.28,0,0,0,58,118.59l0,0a27.43,27.43,0,0,0,8.73-12.17,31.29,31.29,0,0,1-3.74-2c-.63-.38-1.25-.78-1.88-1.22l-.93-.67q-1.46-1.06-2.88-2.32l-.78-.72-.77-.72q-1-.92-1.86-1.91l-.71-.78c-.65-.73-1.29-1.49-1.89-2.28-.24-.29-.46-.58-.68-.87q-1.24-1.64-2.34-3.42l-.58-1c-.23-.38-.45-.77-.67-1.17a44.56,44.56,0,0,1-2.22-4.57c-.1-.23-.2-.46-.28-.69s-.24-.6-.35-.89-.32-.86-.47-1.3-.29-.87-.42-1.31-.25-.85-.37-1.28-.25-.92-.36-1.4c0,0,0-.1,0-.15q-.23-1-.42-2c-.16-.88-.29-1.78-.39-2.68,0-.29-.07-.57-.09-.86s-.06-.6-.07-.9c0-.55-.07-1.1-.08-1.66,0-.36,0-.72,0-1.08V43.51A33.21,33.21,0,0,1,74.65,10.3Z"/><path class="cls-6" d="M74.64,17.19h0a4.91,4.91,0,0,1-4.41-7l4.41-9.09h0l4.41,9.09A4.91,4.91,0,0,1,74.64,17.19Z"/><path class="cls-6" d="M74.64,7.48h0a4.94,4.94,0,0,0-4.8,6.1l4.8,19.76h0l4.8-19.76A4.94,4.94,0,0,0,74.64,7.48Z"/><path class="cls-8" d="M96.6,122l-.9.91a29.48,29.48,0,0,1-42.12,0l-.86-.88c.42-.25.86-.5,1.29-.73a0,0,0,0,1,0,0h0l1-.6A25.28,25.28,0,0,0,58,118.59l0,0a23.25,23.25,0,0,0,16.63,7h.07a23.3,23.3,0,0,0,16.67-7h0a22,22,0,0,0,1.8,1.35l.19.13.9.57c.33.2.68.4,1,.59a.83.83,0,0,1,.15.07C95.83,121.52,96.22,121.74,96.6,122Z"/></g></g></g></g></svg>