<svg xmlns="http://www.w3.org/2000/svg" xmlns:xlink="http://www.w3.org/1999/xlink" viewBox="0 0 149.29 162.22"><defs><style>.cls-1{fill:#f3e968;}.cls-2{isolation:isolate;}.cls-3{clip-path:url(#clip-path);}.cls-10,.cls-4{fill:#ecc19c;}.cls-5{fill:#168ef7;}.cls-6,.cls-7{fill:#e7ecf2;}.cls-10,.cls-7{mix-blend-mode:multiply;}.cls-8{fill:#494846;}.cls-9{fill:#eb6d4a;}.cls-10{opacity:0.5;}</style><clipPath id="clip-path"><circle class="cls-1" cx="74.64" cy="74.64" r="74.64"/></clipPath></defs><title>img-avatar-slug-3</title><g class="cls-2"><g id="Layer_2" data-name="Layer 2"><g id="Layer_14" data-name="Layer 14"><circle class="cls-1" cx="74.64" cy="74.64" r="74.64"/><g class="cls-3"><path class="cls-4" d="M119.57,162.22H33a43.06,43.06,0,0,1,2.31-14q.4-1.19.88-2.35h0c.29-.72.6-1.43.94-2.12l.07-.16a42.4,42.4,0,0,1,3.13-5.49c.67-1,1.39-2,2.14-2.91.52-.64,1.05-1.27,1.6-1.88.27-.31.55-.61.84-.91l.86-.88h0l0,0,0,0h0a42.27,42.27,0,0,1,4.59-4c.82-.61,1.66-1.18,2.52-1.74l.33-.2.37-.23.37-.22.74-.43.06,0,.39-.22.38-.22h0L56,124l.2-.11.16-.1.16-.1.19-.11.69-.43.16-.11.5-.33.27-.2.6-.43h0l0,0,0,0,.07,0c.2-.15.4-.29.59-.45h0a27.27,27.27,0,0,0,3.76-3.63,26.81,26.81,0,0,0,5.74-11.09s0,0,0,0c.16-.6.29-1.21.4-1.82a27.69,27.69,0,0,0,.42-4.83l6.31,0H77.4l5.35,0a27.52,27.52,0,0,0,.41,4.74c.1.6.23,1.21.38,1.79l0,.09a25.53,25.53,0,0,0,.74,2.51A27.56,27.56,0,0,0,93,121.55h0a5,5,0,0,0,.42.33l.38.29,0,0h0l0,0,.09.06,0,0,.07.06.27.19.45.31L95,123l.27.18.49.31.14.08.29.17s0,0,0,0h0l.07,0,.63.36a.83.83,0,0,1,.15.07l.17.11.09,0,.16.1.64.37c.35.2.71.42,1.05.64l.5.32c.17.11.33.21.5.33.68.43,1.34.91,2,1.4h0c.6.45,1.19.91,1.76,1.39l.64.54c.73.63,1.44,1.28,2.12,2l.14.13h0a43.1,43.1,0,0,1,12.72,30.62Z"/><path class="cls-5" d="M119.57,162.22H33a43.06,43.06,0,0,1,2.31-14q.4-1.19.88-2.35h0c.29-.72.6-1.43.94-2.12l.07-.16a42.4,42.4,0,0,1,3.13-5.49c.67-1,1.39-2,2.14-2.91.52-.64,1.05-1.27,1.6-1.88.27-.31.55-.61.84-.91l.86-.88,0,0,0,0a42.26,42.26,0,0,1,4.59-4c.82-.61,1.66-1.18,2.52-1.74l.33-.2.37-.24.37-.22.74-.43.06,0,.39-.22.38-.21h0L56,124l.2-.11.16-.1.16-.09.19-.11.69-.43.16-.11.5-.33.27-.2.6-.43h0l0,0,.07,0,.57-.46h0v0h0c.47.47.94.93,1.44,1.36l.75.62s0,0,0,0l.7.55.16.11.73.51c.55.37,1.13.71,1.7,1,.29.16.59.32.89.46s.62.29.93.42a.28.28,0,0,0,.12.06c.35.16.7.3,1.06.43s.73.26,1.09.38l.84.24.76.2a.64.64,0,0,0,.18,0h.06a24.2,24.2,0,0,0,2.48.43l.89.09c.55,0,1.11.07,1.67.07h1a.05.05,0,0,0,0,0l.26,0,1.13-.07,1-.11h.13l.12,0,.74-.12h.08l.11,0,.1,0,.29-.06.39-.08h0l.33-.08c.36-.09.72-.18,1.07-.29s.7-.21,1-.33c.54-.18,1.06-.38,1.57-.6.34-.15.67-.29,1-.47s.56-.28.83-.43l.6-.33a7.46,7.46,0,0,0,.64-.38l.17-.1.52-.35.28-.19.16-.11c.24-.16.46-.33.69-.51h0l.16-.11c.11-.08.22-.17.33-.27l.51-.41c.55-.46,1.07-.95,1.57-1.45l0,0h0l.42.33.38.29,0,0,0,0,.09.06,0,0,.07,0,.27.19c.15.11.29.22.45.32L95,123l.27.17.49.31.14.09a3.13,3.13,0,0,0,.32.18h0l.07,0,.63.36a.83.83,0,0,1,.15.07l.17.11.09,0,.16.1.24.14h0l.06,0,.34.2c.35.2.71.42,1.05.64l.5.31.5.34c.68.43,1.34.91,2,1.4h0c.6.45,1.19.91,1.76,1.39l.64.55c.73.63,1.44,1.28,2.12,2l.14.13a43.1,43.1,0,0,1,12.72,30.62Z"/><path class="cls-6" d="M81.47,128l-.39.08-.29.06-.1,0-.11,0H80.5l-.74.12-.12,0h-.13l-1,.11-1.13.07-.26,0a.05.05,0,0,1,0,0h-1c-.56,0-1.12,0-1.67-.07l-.89-.09a24.2,24.2,0,0,1-2.48-.43l1.5,5.7,3.71,14.06v0L80,133.67l1.5-5.68Z"/><path class="cls-7" d="M81.47,128l-.39.08-.29.06-.1,0-.11,0H80.5l-.74.12-.12,0h-.13l-1,.11-1.13.07-.26,0a.05.05,0,0,1,0,0h-1c-.56,0-1.12,0-1.67-.07l-.89-.09a24.2,24.2,0,0,1-2.48-.43l1.5,5.7,3.71,14.06v0L80,133.67l1.5-5.68Z"/><path class="cls-6" d="M97.8,124.68c-4,3.7-14.19,13.26-14.31,13.44A44.43,44.43,0,0,1,80,133.67c-1.57-2.12-3.19-4.35-3.71-5.07h0v0h.81a.05.05,0,0,0,0,0l.26,0,1.13-.07,1-.11h.13l.12,0,.74-.12h.08l.11,0,.1,0,.29-.06.39-.08h0l.33-.08c.36-.09.72-.18,1.07-.29s.7-.21,1-.33c.54-.18,1.06-.38,1.57-.6.34-.15.67-.29,1-.47s.56-.28.83-.43l.6-.33a7.45,7.45,0,0,0,.64-.38l.17-.1.52-.35.28-.19.15-.11c.24-.16.47-.33.69-.51h0l.16-.11c.11-.08.22-.17.33-.27l.51-.41c.55-.46,1.07-.95,1.57-1.45l0,0h0c.28.23.55.44.84.66l0,0,.09.06,0,0c.25.19.51.38.78.55L95,123l.9.57c.33.2.68.4,1,.59a.82.82,0,0,1,.15.07l.26.16.16.1.24.14h0Z"/><path class="cls-6" d="M76.32,128.57l0,0h0c-.52.73-2.15,3-3.7,5.07a45.84,45.84,0,0,1-3.47,4.44c-.11-.18-10.35-9.75-14.31-13.44l.06,0,.39-.22.38-.21h0L56,124l.2-.11.16-.1.16-.09.19-.11.69-.43.16-.11.5-.33.27-.2.6-.43h0l0,0,.07,0,.57-.46h0v0h0c.47.47.94.93,1.44,1.36l.75.62s0,0,0,0l.7.55.16.11.73.51c.55.37,1.13.71,1.7,1,.29.16.59.32.89.46s.62.29.93.42a.28.28,0,0,0,.12.06c.35.16.7.3,1.06.43s.73.26,1.09.38l.84.24.76.2a.64.64,0,0,0,.18,0h.06a24.2,24.2,0,0,0,2.48.43l.89.09c.55,0,1.11.07,1.67.07Z"/><path class="cls-4" d="M109.5,41.89V66.81c0,.33,0,.64,0,1s0,.58,0,.87,0,.52,0,.78,0,.38,0,.56,0,.22,0,.33,0,.42-.07.62c0,.39-.08.78-.14,1.17,0,.1,0,.2,0,.29s-.06.39-.09.59v0a.56.56,0,0,0,0,.11c0,.24-.09.49-.13.73s-.15.78-.23,1.17l0,0a1.28,1.28,0,0,1,0,.17l0,0c0,.17-.07.34-.11.51l0,.11a1.62,1.62,0,0,1-.07.27c0,.15-.07.29-.1.44s0,.17-.07.25,0,.15-.06.21c-.17.67-.37,1.32-.57,2-.1.31-.2.61-.3.92l0,.1c0,.08-.06.17-.09.25s-.13.36-.19.54l0,0-.1.25c-.1.26-.2.52-.3.78s-.25.63-.38.94-.24.55-.36.83l-.06.14c-.14.29-.27.59-.41.87s-.29.6-.44.91l0,0c-.29.58-.6,1.17-.91,1.73l-.44.78a48,48,0,0,1-4.17,6.07q-.31.4-.64.78c-.3.37-.61.73-.92,1.08s-.53.6-.81.88l0,0c-.52.55-1,1.1-1.58,1.62-.27.27-.54.52-.82.78s-.33.31-.51.47-.55.5-.84.73-.45.38-.68.57c-.59.48-1.17.95-1.77,1.38-.24.19-.5.37-.75.54-.41.29-.82.57-1.24.84-.23.16-.46.3-.7.44l-.11.07c-.79.49-1.6.94-2.39,1.33l-.61.3-.64.29-.75.32-.06,0-.32.12c-.32.13-.64.25-1,.36s-.81.27-1.21.38l-.84.22-.06,0c-.28.07-.55.13-.83.18l-.22,0c-.23,0-.46.08-.69.11s-.65.09-1,.11l-.29,0h0l-.77,0h0l-.76,0-.29,0c-.23,0-.47,0-.71-.07l-.16,0-.91-.15c-.26,0-.52-.1-.79-.16a21.86,21.86,0,0,1-3.49-1.12l-.79-.33a31.3,31.3,0,0,1-3.74-2l-.21-.13c-.55-.34-1.12-.71-1.66-1.09l-.93-.67q-1.46-1.06-2.88-2.32l-.78-.72-.78-.72-.17-.17c-.55-.52-1.08-1.06-1.58-1.63l-.11-.11-.71-.78c-.65-.73-1.29-1.49-1.89-2.28-.24-.29-.46-.58-.68-.87Q51,91.34,49.88,89.56l-.58-1c-.23-.38-.45-.78-.67-1.17-.32-.57-.62-1.15-.91-1.74-.47-.92-.91-1.87-1.31-2.83-.1-.23-.2-.46-.28-.69s-.24-.6-.35-.89c0-.14-.11-.28-.15-.42s-.14-.38-.2-.56-.08-.21-.11-.32c-.15-.43-.29-.87-.42-1.31s-.25-.85-.37-1.28-.25-.92-.36-1.4c0,0,0-.1,0-.15s0,0,0,0c-.16-.64-.29-1.29-.41-1.94,0-.24-.09-.49-.12-.74-.11-.64-.2-1.29-.27-1.94,0-.29-.07-.57-.09-.86s-.06-.6-.07-.9c0-.55-.07-1.1-.08-1.66,0-.33,0-.64,0-1V41.89A33.22,33.22,0,0,1,74.46,8.73h.09l.69,0,1,0h0l.81,0h.32l.73,0h0l.34,0,.73.06.36,0,.24,0a34,34,0,0,1,3.81.63,33.23,33.23,0,0,1,11.45,5c.77.52,1.5,1.08,2.21,1.66l.82.69h0c.55.48,1.08,1,1.58,1.48a29.07,29.07,0,0,1,2.72,3,33,33,0,0,1,7.06,20.19C109.5,41.7,109.5,41.79,109.5,41.89Z"/><path class="cls-8" d="M125,68.41a53.93,53.93,0,0,1-27.46,35.53,53.44,53.44,0,0,0,6-10.69,54.12,54.12,0,0,0,2.78-8.61c.33-1.43.6-2.86.82-4.29A54.07,54.07,0,0,0,81.56,26.07c-.93-.55-1.88-1.09-2.85-1.59-.53-.29-1.07-.55-1.62-.81l-.81-.38c-.82.38-1.63.77-2.43,1.19-1,.5-1.92,1-2.85,1.59A54.08,54.08,0,0,0,45.43,80.31q.32,2.17.82,4.33A53.94,53.94,0,0,0,49,93.23a53.17,53.17,0,0,0,6,10.71A54,54,0,0,1,65.28,4.24l.59-.17a52.71,52.71,0,0,1,9-1l1.38,0h1.37a52.71,52.71,0,0,1,9,1l.59.17a53.46,53.46,0,0,1,25.39,15.92A54,54,0,0,1,125,68.41Z"/><path class="cls-8" d="M119.92,66.85A48.33,48.33,0,0,1,95.35,98.67l0,0a48.34,48.34,0,0,0,7.86-17.29c.3-1.28.54-2.56.73-3.84A48.25,48.25,0,0,0,92.59,38.67c-.14-.17-.29-.34-.45-.51l-.23-.26,0,0A48.09,48.09,0,0,0,81,28.93c-1.29-.78-2.63-1.5-4-2.15l-.73-.34a49.26,49.26,0,0,0-4.73,2.5A48.41,48.41,0,0,0,48.65,77.51c.19,1.3.44,2.59.74,3.88a48.06,48.06,0,0,0,7.86,17.29l-.06,0A48.39,48.39,0,0,1,33,43.26,48.52,48.52,0,0,1,43.69,23.62,47.89,47.89,0,0,1,66.43,9.37L67,9.21a48.24,48.24,0,0,1,8.1-.88h2.46a48.23,48.23,0,0,1,8.09.88l.53.16a47.93,47.93,0,0,1,22.74,14.25,48.61,48.61,0,0,1,10.64,19.64A48.1,48.1,0,0,1,119.92,66.85Z"/><path class="cls-9" d="M84.32,89.33a7.86,7.86,0,0,0-5.72-2.57,7.27,7.27,0,0,0-2.31.38A7.27,7.27,0,0,0,74,86.75a7.88,7.88,0,0,0-5.73,2.57l-.32.35.32.35a10.59,10.59,0,0,0,16.07,0l.32-.35Z"/><path class="cls-8" d="M92.59,38.67c-.14-.17-.29-.34-.45-.51l-.23-.26.23.24A5.52,5.52,0,0,1,92.59,38.67Z"/><path class="cls-8" d="M92.14,24.48V38.16l-.23-.26,0,0a9.14,9.14,0,0,0-13.35.51,3,3,0,0,1-4.45,0,9.14,9.14,0,0,0-13.63-.22V24.48Z"/><path class="cls-10" d="M76.29,3.07V162.22H33a43.06,43.06,0,0,1,2.31-14q.4-1.19.88-2.35h0c.29-.72.6-1.43.94-2.12l.07-.16a42.4,42.4,0,0,1,3.13-5.49c.67-1,1.39-2,2.14-2.91.52-.64,1.05-1.27,1.6-1.88.27-.31.55-.61.84-.91l.86-.88h0l0,0,0,0h0a42.27,42.27,0,0,1,4.59-4c.82-.61,1.66-1.18,2.52-1.74l.33-.2.37-.23.37-.22.74-.43.06,0,.39-.22.38-.22h0L56,124l.2-.11.16-.1.16-.1.19-.11.69-.43.16-.11.5-.33.27-.2.6-.43h0l0,0,0,0,.07,0,.57-.46h0v0h0a27.27,27.27,0,0,0,3.76-3.63,26.81,26.81,0,0,0,5.74-11.09s0,0,0,0l-.79-.33a31.3,31.3,0,0,1-3.74-2l-.21-.13c-.55-.34-1.12-.71-1.66-1.09l-.93-.67q-1.46-1.06-2.88-2.32l-.78-.72-.78-.72-.17-.17A48,48,0,0,1,49,93.23a53.17,53.17,0,0,0,6,10.71A54,54,0,0,1,65.28,4.24l.59-.17a52.71,52.71,0,0,1,9-1Z"/></g></g></g></g></svg>