<svg xmlns="http://www.w3.org/2000/svg" xmlns:xlink="http://www.w3.org/1999/xlink" viewBox="0 0 149.29 159.3"><defs><style>.cls-1{fill:#a4e6da;}.cls-2{isolation:isolate;}.cls-3{clip-path:url(#clip-path);}.cls-4{fill:#141720;}.cls-5,.cls-8{fill:#ecc19c;}.cls-6{fill:#eb6d4a;}.cls-7{fill:#e7ecf2;}.cls-8{opacity:0.5;mix-blend-mode:multiply;}</style><clipPath id="clip-path"><circle class="cls-1" cx="74.64" cy="74.64" r="74.64"/></clipPath></defs><title>img-avatar-slug-1</title><g class="cls-2"><g id="Layer_2" data-name="Layer 2"><g id="Layer_16" data-name="Layer 16"><circle class="cls-1" cx="74.64" cy="74.64" r="74.64"/><g class="cls-3"><rect class="cls-4" x="35.5" y="43.85" width="78.27" height="105.43"/><path class="cls-5" d="M117.92,159.29H31.37a43.06,43.06,0,0,1,2.31-14q.4-1.19.88-2.35h0c.29-.72.6-1.43.94-2.12l.07-.16a42.38,42.38,0,0,1,3.13-5.49c.67-1,1.39-2,2.14-2.91.52-.64,1.05-1.27,1.6-1.88.27-.31.55-.61.84-.91l.86-.88.08-.07a42.27,42.27,0,0,1,4.59-4c.82-.61,1.66-1.18,2.52-1.74l.33-.2c.75-.48,1.52-.93,2.3-1.35h0c.29-.15.56-.31.84-.49l.19-.11.69-.43.22-.14c.2-.13.39-.26.59-.41s.49-.34.73-.52h0l0,0c.23-.16.46-.33.68-.51h0A27.28,27.28,0,0,0,61.75,115a26.81,26.81,0,0,0,5.73-11.09c.16-.61.29-1.23.41-1.86a27.69,27.69,0,0,0,.42-4.83l6.31,0h1.13l5.35,0a27.52,27.52,0,0,0,.41,4.74c.11.64.24,1.26.41,1.88a25.5,25.5,0,0,0,.74,2.51,27.56,27.56,0,0,0,8.7,12.22c.21.18.42.35.64.51a.94.94,0,0,0,.21.16l0,0,.09.06,0,0,.2.15.58.4.19.13.44.29.46.28.51.3c.16.11.33.2.51.29a.82.82,0,0,1,.15.07l.27.15.16.1.64.37c.35.2.71.42,1.05.64s.67.42,1,.65c.68.43,1.34.91,2,1.4h0c.82.61,1.62,1.26,2.41,1.93s1.44,1.28,2.12,2l.14.13a43.1,43.1,0,0,1,12.72,30.62Z"/><path class="cls-6" d="M117.92,159.29H31.37a43.06,43.06,0,0,1,2.31-14q.4-1.19.88-2.35h0c.29-.72.6-1.43.94-2.12l.07-.16a42.38,42.38,0,0,1,3.13-5.49c.67-1,1.39-2,2.14-2.91.52-.64,1.05-1.27,1.6-1.88.27-.31.55-.61.84-.91l.86-.88.08-.07a42.27,42.27,0,0,1,4.59-4c.82-.61,1.66-1.18,2.52-1.74l.33-.2c.75-.48,1.52-.93,2.3-1.35h0l.84-.49.19-.11.69-.43.66-.45.27-.2.6-.43,0,0,0,0,.64-.51h0l0,0c.47.47.94.93,1.44,1.36l.75.62s0,0,0,0l.7.55.16.11.73.51c.55.37,1.13.71,1.7,1,.29.16.59.32.89.47s.62.29.93.42a.28.28,0,0,0,.12.06c.35.16.7.3,1.06.43s.73.26,1.09.38l.84.24.76.2a.64.64,0,0,0,.18,0,25.31,25.31,0,0,0,2.54.44l.89.09c.6,0,1.21.07,1.82.07h.82a.05.05,0,0,0,0,0l.26,0,1.13-.07,1-.11H78l.12,0,.74-.12h.08l.11,0,.1,0,.29-.06.39-.08.38-.09c.36-.09.72-.18,1.07-.29s.7-.21,1-.33c.54-.18,1.06-.38,1.57-.6.34-.15.67-.29,1-.47s.56-.28.83-.43l.6-.33a7.43,7.43,0,0,0,.64-.38l.17-.1.52-.35.28-.19.16-.11c.24-.16.46-.33.69-.51h0l.15-.11c.11-.08.22-.17.33-.27l.51-.41c.55-.46,1.07-.95,1.57-1.45l0,0,.85.67,0,0,.09.06,0,0c.25.19.51.38.78.55l.19.13.9.57c.33.2.68.4,1,.59a.82.82,0,0,1,.15.07l.26.16.16.1.64.37c.35.2.71.42,1.05.64s.67.42,1,.65c.68.43,1.34.91,2,1.4h0c.82.62,1.63,1.26,2.41,1.94s1.44,1.28,2.12,2l.14.13a43.1,43.1,0,0,1,12.72,30.62Z"/><path class="cls-7" d="M74.72,125.65l0,0v0l0,.06a11.8,11.8,0,0,1-18.53,1.62l-4.43-4.75c.75-.48,1.52-.93,2.3-1.35h0l.84-.49.19-.11.69-.43.22-.14.44-.31.15-.1.73-.52h0l0,0,.64-.51,0,0c.46.47.95.93,1.45,1.35.24.22.5.43.75.62,0,0,0,0,0,0,.23.2.46.38.7.55l.16.11c.24.18.48.35.73.51a17.17,17.17,0,0,0,1.7,1c.29.16.59.32.89.47s.62.29.93.42a.28.28,0,0,0,.12.06,22,22,0,0,0,2.15.81l.84.24.76.2a.64.64,0,0,0,.18,0,18.51,18.51,0,0,0,2.54.44c.29,0,.59.07.89.09.6.06,1.2.08,1.81.08Z"/><path class="cls-7" d="M97.7,122.69l-4.36,4.68a11.8,11.8,0,0,1-18.58-1.67v0l0,0a23.29,23.29,0,0,0,16.63-7h0a22,22,0,0,0,1.8,1.35l.19.13.9.57c.33.2.68.4,1,.59a.83.83,0,0,1,.15.07c.72.4,1.43.82,2.12,1.26Z"/><path class="cls-4" d="M97.76,27A40.26,40.26,0,0,1,94.64,42.6c-.18.42-.36.84-.56,1.26A40.52,40.52,0,0,1,74.68,63.48l0,0a40.55,40.55,0,0,1-28.3,2.34,41.89,41.89,0,0,1-4.41-1.53h0l-.5-.22-.4-.17a40.31,40.31,0,0,1-2.37-4.62,39.15,39.15,0,0,1,36-54.58h0A38.94,38.94,0,0,1,93.94,9.8c.24.51.47,1,.7,1.57a39.55,39.55,0,0,1,1.85,5.5h0A40.47,40.47,0,0,1,97.76,27Z"/><path class="cls-4" d="M113.78,43.85a39,39,0,0,1-3.87,17A40.41,40.41,0,0,1,94.64,11.37c.13-.31.26-.61.4-.92A39.13,39.13,0,0,1,113.78,43.85Z"/><path class="cls-5" d="M107.86,41.89V66.8c0,.33,0,.64,0,1s0,.58,0,.87,0,.52,0,.78,0,.38,0,.56,0,.22,0,.33,0,.42-.07.62c0,.39-.08.78-.14,1.17,0,.1,0,.2,0,.29s-.06.39-.09.59v0a.55.55,0,0,0,0,.11c0,.24-.09.49-.13.73s-.15.78-.23,1.17l0,0a1.27,1.27,0,0,1,0,.17l0,0c0,.17-.07.34-.11.51l0,.11a1.62,1.62,0,0,1-.07.27c0,.15-.07.29-.1.44s0,.17-.07.25,0,.15-.06.21c-.17.67-.37,1.32-.57,2-.1.31-.2.61-.3.92l0,.1-.28.79,0,0-.1.25c-.1.26-.2.52-.3.78s-.25.63-.38.94-.24.55-.36.83l-.06.14c-.14.29-.27.59-.41.87s-.29.6-.44.91l0,0c-.29.58-.6,1.17-.91,1.73l-.44.78a48,48,0,0,1-4.17,6.07q-.31.4-.64.78c-.3.37-.61.73-.92,1.08s-.53.6-.81.88l0,0c-.78.84-1.58,1.64-2.4,2.39-.16.16-.33.31-.51.47s-.55.5-.84.73-.45.38-.68.57c-.59.48-1.17.95-1.77,1.38-.24.19-.5.37-.75.54-.41.29-.82.57-1.24.84-.23.16-.46.3-.7.44l-.11.07c-.79.49-1.6.94-2.39,1.33l-.61.3-.64.29-.81.34-.32.12c-.32.13-.64.25-1,.36s-.81.27-1.21.38l-.84.22-.06,0c-.28.07-.55.13-.83.18l-.22,0c-.23,0-.46.08-.69.11s-.65.09-1,.11l-.33,0-.77,0h0l-.76,0-.29,0c-.23,0-.47,0-.71-.07l-.16,0-.91-.15c-.26,0-.52-.1-.79-.16a23.44,23.44,0,0,1-4.28-1.44,31.29,31.29,0,0,1-3.74-2l-.21-.13c-.55-.34-1.12-.71-1.66-1.09l-.93-.67q-1.46-1.06-2.88-2.32l-.78-.72-.78-.72c-.6-.58-1.19-1.17-1.75-1.8l-.11-.11-.71-.78c-.65-.73-1.29-1.49-1.89-2.28-.24-.29-.46-.58-.68-.87q-1.24-1.64-2.34-3.42l-.58-1c-.23-.38-.45-.78-.67-1.17-.32-.57-.62-1.15-.91-1.74-.47-.92-.91-1.87-1.31-2.83-.1-.23-.2-.46-.28-.69s-.24-.6-.35-.89c0-.14-.11-.28-.15-.42q-.17-.44-.32-.88c-.15-.43-.29-.87-.42-1.31s-.25-.85-.37-1.28-.25-.92-.36-1.4c0,0,0-.1,0-.15s0,0,0,0c-.15-.64-.29-1.29-.41-1.94,0-.24-.09-.49-.12-.74-.11-.64-.2-1.29-.27-1.94,0-.29-.07-.57-.09-.86s-.06-.6-.07-.9c0-.55-.07-1.1-.08-1.66,0-.33,0-.64,0-1V41.89A33.21,33.21,0,0,1,72.82,8.73h.09l.69,0,1,0h0l1.05,0h.07l.73,0h0l.34,0,.73.06.36,0,.24,0A34,34,0,0,1,82,9.49a33.23,33.23,0,0,1,11.45,5c.77.52,1.5,1.08,2.21,1.66l.82.69h0a32.24,32.24,0,0,1,4.3,4.53,33,33,0,0,1,7.06,20.19C107.86,41.69,107.86,41.79,107.86,41.89Z"/><path class="cls-4" d="M113.78,43.85c0,.44,0,.87,0,1.31s0,.86-.07,1.28v0c0,.42-.07.84-.11,1.26s-.09.85-.15,1.27-.12.85-.19,1.26-.15.84-.23,1.26a.29.29,0,0,0,0,.09c-.16.8-.35,1.58-.56,2.37-.12.46-.24.91-.38,1.35s-.28.89-.43,1.33-.29.82-.44,1.22a.5.5,0,0,0,0,.1c-.17.42-.34.86-.53,1.28s-.46,1.06-.71,1.57c-.69-.45-1.38-.92-2-1.43-.24-.17-.47-.34-.7-.53l-.74-.58c-.69-.56-1.37-1.15-2-1.77-.18-.16-.36-.33-.54-.51s-.55-.53-.82-.8a39.35,39.35,0,0,1-3.12-3.58c-.29-.38-.57-.75-.85-1.14s-.53-.74-.78-1.13a41.56,41.56,0,0,1-2.37-4q-.26-.49-.49-1c-.08-.16-.16-.33-.24-.5v0c-.19-.41-.38-.82-.55-1.24-.18.42-.36.84-.56,1.26A40.52,40.52,0,0,1,74.68,63.48l0,0a40.55,40.55,0,0,1-28.3,2.34,41.89,41.89,0,0,1-4.41-1.53h0l-.5-.22-.4-.17a40.31,40.31,0,0,1-2.37-4.62,39.15,39.15,0,0,1,36-54.58h0A38.94,38.94,0,0,1,93.94,9.8c.37.2.73.42,1.1.64A39.13,39.13,0,0,1,113.78,43.85Z"/><path class="cls-8" d="M74.68,4.72V159.3H31.37a43.06,43.06,0,0,1,2.31-14q.4-1.19.88-2.35h0c.29-.72.6-1.43.94-2.12v-97A39.14,39.14,0,0,1,74.64,4.72Z"/></g></g></g></g></svg>