<svg xmlns="http://www.w3.org/2000/svg" xmlns:xlink="http://www.w3.org/1999/xlink" viewBox="0 0 149.29 157.93"><defs><style>.cls-1{fill:#d1d3d3;}.cls-2{isolation:isolate;}.cls-3{clip-path:url(#clip-path);}.cls-4{fill:#dfb28b;}.cls-5{fill:#59b8b2;}.cls-6{fill:#fff;}.cls-7{fill:#141720;}.cls-8{fill:#1a1a1a;}.cls-9{fill:#543e36;}.cls-10{fill:#ecc19c;opacity:0.5;mix-blend-mode:multiply;}</style><clipPath id="clip-path"><circle class="cls-1" cx="74.64" cy="74.64" r="74.64"/></clipPath></defs><title>img-avatar-slug-6</title><g class="cls-2"><g id="Layer_2" data-name="Layer 2"><g id="Layer_15" data-name="Layer 15"><circle class="cls-1" cx="74.64" cy="74.64" r="74.64"/><g class="cls-3"><path class="cls-4" d="M117.88,157.92H31.34a43.11,43.11,0,0,1,12.77-30.69c.37-.37.73-.72,1.12-1.07.56-.52,1.15-1,1.75-1.53s1.2-1,1.82-1.43c.82-.61,1.66-1.18,2.52-1.74s1.74-1.08,2.64-1.57l0,0c.35-.2.69-.39,1-.6a25,25,0,0,0,2.93-2l0,0,.11-.09a27.38,27.38,0,0,0,8.57-12h0a27.22,27.22,0,0,0,1.6-9.23l6.35,0,6.44,0a27.26,27.26,0,0,0,10.09,21.23l.11.09.06,0c.27.22.55.43.82.64s.78.56,1.17.82.6.39.9.57.68.41,1,.6l.08,0,.07,0c1,.55,2,1.14,2.93,1.76.32.2.64.42.95.64s.82.59,1.22.9h0A43.15,43.15,0,0,1,117.88,157.92Z"/><path class="cls-5" d="M117.88,157.92H31.34a43.11,43.11,0,0,1,12.77-30.69c.37-.37.73-.72,1.12-1.07.56-.52,1.15-1,1.75-1.53s1.2-1,1.82-1.44c.82-.6,1.66-1.18,2.52-1.73s1.74-1.08,2.64-1.57l0,0c.35-.2.69-.39,1-.6a25,25,0,0,0,2.93-2l.1.09a23.25,23.25,0,0,0,16.58,6.93h0a23.29,23.29,0,0,0,16.58-6.92l.1-.1c.27.22.55.43.82.64s.78.56,1.17.82.6.39.9.57.68.41,1,.6l.08,0,.07,0c1,.55,2,1.14,2.93,1.77.32.2.64.42.95.64s.82.59,1.22.9h0A43.15,43.15,0,0,1,117.88,157.92Z"/><path class="cls-4" d="M107.83,38.26V65.33c0,18.62-13.24,34.38-25.2,39.7A20.26,20.26,0,0,1,74.72,107h-.48a20.49,20.49,0,0,1-7.55-1.88C54.7,99.78,41.4,84,41.4,65.33V38.26Z"/><path class="cls-6" d="M91.33,117.05a1.29,1.29,0,0,1-.06.16.89.89,0,0,1,0,.14A53.47,53.47,0,0,1,74.64,141.1a53.36,53.36,0,0,1-16.58-23.76l0-.13,0-.16.13,0,0,0a24.8,24.8,0,0,0,33.06,0l0,0Z"/><path class="cls-7" d="M107.7,62.07a4.37,4.37,0,0,0,.09-.64v.64Z"/><path class="cls-7" d="M41.44,62.07V60.75a7.11,7.11,0,0,0,.12,1.32Z"/><path class="cls-7" d="M107.82,60.75a6.26,6.26,0,0,1,0,.68V60.09A6,6,0,0,1,107.82,60.75Z"/><path class="cls-8" d="M101.95,52.84a.26.26,0,0,0-.22-.26,82.22,82.22,0,0,0-11.34-.85c-6,0-13.79,1.89-15.14,1.89H74c-.63,0-2.65-.41-5.25-.85a62.62,62.62,0,0,0-9.9-1,84.21,84.21,0,0,0-9.69.63c-.78.09-1.35.17-1.65.22a.26.26,0,0,0-.22.26l-.07,3.23a.28.28,0,0,0,.17.26l.37.12c.55.21.5,10,3.4,12.4,1.73,1.44,3.27,2.26,9.75,2.26,3.74,0,6.11-1,8.35-4,1.62-2.17,3-7.3,3-7.3a2.56,2.56,0,0,1,2.23-2.3h.07a2.52,2.52,0,0,1,2.29,2.3s1.43,5.13,3,7.3c2.24,3,4.6,4,8.35,4,6.48,0,8-.82,9.75-2.26,2.9-2.44,2.86-12.19,3.4-12.4l.37-.12a.28.28,0,0,0,.17-.26ZM69.31,64.38c-1,2.26-3.41,5.16-6.88,5.34C52,70.24,51.57,67.34,50.9,65a15.75,15.75,0,0,1-.59-6.61c.27-2.3.86-3.65,1.89-4.32a4.64,4.64,0,0,1,2.19-.76,42.76,42.76,0,0,1,5.72-.26,29.8,29.8,0,0,1,4.63.35c3.7.6,6.2,1.86,6.2,3.09A23.2,23.2,0,0,1,69.31,64.38ZM98.39,65c-.68,2.3-1.15,5.2-11.54,4.67-3.47-.17-5.93-3.08-6.88-5.34a23.2,23.2,0,0,1-1.62-7.85c0-1.71,4.73-3.44,10.82-3.44s7.06.45,7.9,1c1,.68,1.63,2,1.9,4.32A15.75,15.75,0,0,1,98.39,65Z"/><path class="cls-9" d="M107.8,38.26l-.11.07H41.4v-.08c0-23.33,15.79-22.39,33.08-20.46h0l.14,0,3.57.4A37.07,37.07,0,0,0,107,9.11C114.11,14.19,115.41,32.93,107.8,38.26Z"/><path class="cls-9" d="M53,37l-.18.56c-.08.25-.16.5-.25.74l0,.08c-.08.22-.15.44-.24.65a37.63,37.63,0,0,1-6.64,11.12,18.65,18.65,0,0,0-4.14,11.14c0,.15,0,.29,0,.45s0,.2,0,.3c0,.33,0,.67,0,1V38.34l.68-.08,2-.24,2.65-.32,3.12-.38Z"/><path class="cls-9" d="M107.78,38.34,96.24,37l.18.56a37.36,37.36,0,0,0,7.16,12.59c2.1,2.49,4.2,6.57,4.2,12.91C107.78,54.33,107.78,38.34,107.78,38.34Z"/><ellipse class="cls-9" cx="74.48" cy="36.96" rx="24.67" ry="4.68"/><polygon class="cls-9" points="74.48 98.35 69.94 98.35 74.48 107.43 79.02 98.35 74.48 98.35"/><path class="cls-10" d="M74.64,17.81V157.93H31.34a43.11,43.11,0,0,1,12.77-30.69c.37-.37.73-.72,1.12-1.07.56-.52,1.15-1,1.75-1.53s1.2-1,1.82-1.44c.82-.6,1.66-1.18,2.52-1.73s1.74-1.08,2.64-1.57l0,0c.35-.2.69-.39,1-.6a25,25,0,0,0,2.93-2l0,0,0-.16.13,0,0,0a27.38,27.38,0,0,0,8.57-12h0C54.7,99.78,41.4,84,41.4,65.33V38.26c0-23.33,15.79-22.39,33.08-20.46h0Z"/></g></g></g></g></svg>