<svg xmlns="http://www.w3.org/2000/svg" xmlns:xlink="http://www.w3.org/1999/xlink" viewBox="0 0 149.29 159.29"><defs><style>.cls-1{fill:#7d6991;}.cls-2{isolation:isolate;}.cls-3{clip-path:url(#clip-path);}.cls-4{fill:#141720;}.cls-5,.cls-9{fill:#ecc19c;}.cls-6{fill:#eb6d4a;}.cls-7{fill:#e7ecf2;}.cls-8{fill:#8dc63f;}.cls-9{opacity:0.5;mix-blend-mode:multiply;}</style><clipPath id="clip-path"><circle class="cls-1" cx="74.64" cy="74.64" r="74.64"/></clipPath></defs><title>img-avatar-slug-5</title><g class="cls-2"><g id="Layer_2" data-name="Layer 2"><g id="Layer_3" data-name="Layer 3"><circle class="cls-1" cx="74.64" cy="74.64" r="74.64"/><g class="cls-3"><path class="cls-4" d="M43.94,122.09c0,3.17-1.26,5.87-3,7a3.36,3.36,0,0,1-3.77,0c-1.78-1.14-3-3.85-3-7a10.51,10.51,0,0,1,.92-4.41c.88-1.93,2.34-3.19,4-3.19s3.12,1.26,4,3.19A10.51,10.51,0,0,1,43.94,122.09Z"/><path class="cls-4" d="M43.94,113.28a10.52,10.52,0,0,1-.92,4.41c-.89,1.93-2.35,3.18-4,3.18s-3.11-1.26-4-3.18a11,11,0,0,1,0-8.83c.89-1.93,2.35-3.18,4-3.18s3.11,1.26,4,3.18A10.52,10.52,0,0,1,43.94,113.28Z"/><path class="cls-4" d="M43.94,104.45a10.52,10.52,0,0,1-.92,4.41c-.89,1.93-2.35,3.18-4,3.18s-3.11-1.26-4-3.18A11,11,0,0,1,35,100c.89-1.93,2.35-3.18,4-3.18s3.11,1.26,4,3.18A10.48,10.48,0,0,1,43.94,104.45Z"/><path class="cls-4" d="M43.94,95.53v.1A10.52,10.52,0,0,1,43,100c-.89,1.93-2.35,3.18-4,3.18S35.91,102,35,100a11,11,0,0,1,0-8.82,5.52,5.52,0,0,1,2.7-2.92A3.24,3.24,0,0,1,39,88c1.66,0,3.12,1.26,4,3.19A10.46,10.46,0,0,1,43.94,95.53Z"/><path class="cls-4" d="M43.94,86.81A10.52,10.52,0,0,1,43,91.22a6.79,6.79,0,0,1-1.35,2A3.78,3.78,0,0,1,39,94.4c-1.65,0-3.11-1.25-4-3.17a10.52,10.52,0,0,1-.92-4.41,10.83,10.83,0,0,1,.55-3.46,7,7,0,0,1,.38-1c.89-1.93,2.35-3.18,4-3.18s3.11,1.26,4,3.18A10.52,10.52,0,0,1,43.94,86.81Z"/><ellipse class="cls-4" cx="39.01" cy="77.99" rx="4.92" ry="7.59"/><ellipse class="cls-4" cx="39.01" cy="69.16" rx="4.92" ry="7.59"/><ellipse class="cls-4" cx="39.01" cy="60.34" rx="4.92" ry="7.59"/><polygon class="cls-4" points="43.83 138.77 34.2 138.77 37.13 129.11 39.02 122.89 40.9 129.11 41.59 131.37 43.83 138.77"/><ellipse class="cls-4" cx="109.99" cy="122.09" rx="4.92" ry="7.59"/><ellipse class="cls-4" cx="109.99" cy="113.27" rx="4.92" ry="7.59"/><ellipse class="cls-4" cx="109.99" cy="104.45" rx="4.92" ry="7.59"/><ellipse class="cls-4" cx="109.99" cy="95.63" rx="4.92" ry="7.59"/><ellipse class="cls-4" cx="109.99" cy="86.81" rx="4.92" ry="7.59"/><ellipse class="cls-4" cx="109.99" cy="77.99" rx="4.92" ry="7.59"/><ellipse class="cls-4" cx="109.99" cy="69.16" rx="4.92" ry="7.59"/><ellipse class="cls-4" cx="109.99" cy="60.34" rx="4.92" ry="7.59"/><polygon class="cls-4" points="109.99 122.88 105.17 138.77 109.88 138.77 110.1 138.77 114.8 138.77 109.99 122.88"/><path class="cls-4" d="M120.89,58.4a52.3,52.3,0,0,1-6.44,25.32,50.4,50.4,0,0,1-7,9.68c-.78.84-1.59,1.66-2.42,2.44A44.83,44.83,0,0,1,83,107.29a43.15,43.15,0,0,1-4.85.67h0c-1.14.09-2.3.14-3.47.14h0c-1.15,0-2.3,0-3.43-.14h0a44,44,0,0,1-4.78-.65A44.82,44.82,0,0,1,43.91,95.57c-.78-.74-1.54-1.52-2.28-2.32a50.4,50.4,0,0,1-7-9.86,52.34,52.34,0,0,1-6.27-25,53.22,53.22,0,0,1,2-14.4c.17-.62.36-1.23.55-1.84A50.58,50.58,0,0,1,33.3,36c.25-.55.52-1.09.8-1.63a50.67,50.67,0,0,1,4.31-6.92l.42-.57c.65-.86,1.34-1.69,2-2.5a47.69,47.69,0,0,1,3.58-3.68A44.59,44.59,0,0,1,67,9.4a42.94,42.94,0,0,1,7.64-.69h0a44.2,44.2,0,0,1,30.17,12,47.65,47.65,0,0,1,3.58,3.68c.7.81,1.39,1.64,2,2.5l.42.57a49.89,49.89,0,0,1,4.31,6.92c.28.54.55,1.08.8,1.63a50.55,50.55,0,0,1,2.41,6.13c.2.6.38,1.22.55,1.84A53.23,53.23,0,0,1,120.89,58.4Z"/><path class="cls-5" d="M117.92,159.29H31.37a43.06,43.06,0,0,1,2.31-14q.4-1.19.88-2.35h0c.29-.72.6-1.43.94-2.12l.07-.16c.3-.64.63-1.28,1-1.9a41,41,0,0,1,2.16-3.59c.67-1,1.39-2,2.14-2.91.24-.3.49-.6.74-.9s.56-.66.86-1,.55-.61.84-.91l.86-.88.08-.07a42.27,42.27,0,0,1,4.59-4c.82-.61,1.66-1.18,2.52-1.74l.33-.2c.75-.48,1.52-.93,2.3-1.35h0c.29-.15.56-.31.84-.49l.19-.11.69-.43.22-.14c.2-.13.39-.26.59-.41s.49-.34.73-.52h0s0,0,0,0h0l0,0c.22-.16.44-.32.65-.49h0A27.27,27.27,0,0,0,61.75,115a26.62,26.62,0,0,0,2.74-3.83,25.84,25.84,0,0,0,1.9-3.87c.12-.28.23-.55.33-.83a26.41,26.41,0,0,0,.77-2.55c.16-.61.29-1.23.41-1.86a27.68,27.68,0,0,0,.42-4.83l6.31,0h1.13l5.35,0a27.53,27.53,0,0,0,.41,4.74c.11.64.24,1.26.41,1.88a25.5,25.5,0,0,0,.74,2.51c.1.29.2.57.33.86a25.59,25.59,0,0,0,1.89,3.89,26.29,26.29,0,0,0,2.46,3.51,26.73,26.73,0,0,0,4,4c.19.16.38.32.58.46a1.48,1.48,0,0,0,.19.15l.09.06,0,0h0l.06,0,0,0,.2.16.58.4.19.13.44.29.46.28.51.3c.16.11.33.2.51.29a.82.82,0,0,1,.15.07l.27.15.16.1.64.37c.35.2.71.42,1.05.64s.67.42,1,.65c.68.43,1.34.91,2,1.4h0c.82.61,1.62,1.26,2.41,1.93s1.44,1.28,2.12,2l.14.13c.8.79,1.57,1.62,2.29,2.47a42.53,42.53,0,0,1,5.25,7.64c.37.66.71,1.34,1,2A43,43,0,0,1,117.92,159.29Z"/><path class="cls-6" d="M117.92,159.29H31.37a43.06,43.06,0,0,1,2.31-14q.4-1.19.88-2.35h0c.29-.72.6-1.43.94-2.12l.07-.16c.3-.64.63-1.28,1-1.9a41,41,0,0,1,2.16-3.59c.67-1,1.39-2,2.14-2.91.24-.3.49-.6.74-.9s.56-.66.86-1,.55-.61.84-.91l.86-.88.08-.07a42.27,42.27,0,0,1,4.59-4c.82-.61,1.66-1.18,2.52-1.74l.33-.2c.75-.48,1.52-.93,2.3-1.35h0l.84-.49.19-.11.69-.43.66-.45.27-.2.6-.43h0l0,0,.64-.51h0l0,0c.46.47.94.93,1.44,1.36l.75.62s0,0,0,0l.7.55.16.11.73.51c.55.37,1.13.71,1.7,1,.29.16.59.32.89.46s.62.29.93.42a.28.28,0,0,0,.12.06c.35.16.7.3,1.06.43l1.09.38.84.24.76.2a.64.64,0,0,0,.18,0,25.32,25.32,0,0,0,2.54.44l.89.09c.6,0,1.21.07,1.82.07h.87l.26,0,1.13-.07,1-.11H78l.1,0s0,0,0,0l.37-.06h0a1.66,1.66,0,0,0,.35-.07h.08l.11,0,.08,0s0,0,0,0l.29-.06.26,0,.51-.12c.36-.09.72-.18,1.07-.29s.7-.21,1-.33l.7-.25c.29-.11.59-.23.87-.35s.61-.27.92-.42l.26-.13a6.11,6.11,0,0,0,.56-.29.19.19,0,0,0,.09,0l.6-.33a4.41,4.41,0,0,0,.42-.24l.22-.14.08,0,0,0c.27-.17.53-.34.79-.53s.33-.23.5-.36l.41-.3h0l.14-.1.26-.2.09-.08.51-.41c.55-.46,1.07-.95,1.57-1.45h0l.85.67,0,0h0l.06,0,0,0c.25.19.51.38.78.55l.19.13.9.57c.33.2.68.4,1,.59a.83.83,0,0,1,.15.07l.26.16.16.1.64.37c.35.2.71.42,1.05.64s.67.42,1,.65c.68.43,1.34.91,2,1.4h0c.82.62,1.63,1.26,2.41,1.94s1.44,1.28,2.12,2l.14.13c.8.79,1.57,1.62,2.29,2.47a42.53,42.53,0,0,1,5.25,7.64c.37.66.71,1.34,1,2A43,43,0,0,1,117.92,159.29Z"/><path class="cls-7" d="M74.72,125.64l0,0v0l0,.06,0,0a11.8,11.8,0,0,1-18.51,1.58l-4.43-4.75c.75-.48,1.52-.93,2.3-1.35h0l.84-.49.19-.11.69-.43.22-.14.44-.31.15-.1.73-.52h0l0,0,0,0,.64-.51,0,0c.46.47.95.93,1.45,1.35.24.22.5.43.75.62,0,0,0,0,0,0,.23.2.46.38.7.55l.16.11c.24.18.48.35.73.51a17.19,17.19,0,0,0,1.7,1c.29.16.59.32.89.46s.62.29.93.42a.28.28,0,0,0,.12.06c.35.16.7.29,1.06.43l1.09.38.84.24.76.2a.64.64,0,0,0,.18,0,18.52,18.52,0,0,0,2.54.44c.29,0,.59.07.89.09.6.06,1.2.08,1.81.08Z"/><path class="cls-7" d="M97.7,122.69l-4.36,4.68a11.8,11.8,0,0,1-18.58-1.67v0l0,0a23.29,23.29,0,0,0,16.63-7h0a22,22,0,0,0,1.8,1.35l.19.13.9.57c.33.2.68.4,1,.59a.83.83,0,0,1,.15.07c.72.4,1.43.82,2.12,1.26Z"/><path class="cls-5" d="M107.86,44.21V66.8c0,.33,0,.64,0,1s0,.58,0,.87,0,.52,0,.78,0,.38,0,.56,0,.22,0,.33,0,.42-.07.62c0,.39-.08.78-.14,1.17,0,.1,0,.2,0,.29s-.06.39-.09.59v0a.55.55,0,0,0,0,.11c0,.24-.09.49-.13.73s-.15.78-.23,1.17l0,0a1.27,1.27,0,0,1,0,.17l0,0c0,.17-.07.34-.11.51l0,.11a1.62,1.62,0,0,1-.07.27c0,.15-.07.29-.1.44s0,.17-.07.25,0,.15-.06.21c-.17.67-.37,1.32-.57,2-.1.31-.2.61-.3.92l0,.1-.28.79,0,0-.1.25c-.1.26-.2.52-.3.78s-.25.63-.38.94-.24.55-.36.83l-.06.14c-.14.29-.27.59-.41.87s-.29.6-.44.91l0,0c-.29.58-.6,1.17-.91,1.73l-.44.78a48,48,0,0,1-4.17,6.07q-.31.4-.64.78c-.3.37-.61.73-.92,1.08s-.53.6-.81.88l0,0c-.78.84-1.58,1.64-2.4,2.39-.16.16-.33.31-.51.46s-.55.5-.84.73-.45.38-.68.57c-.59.48-1.17.95-1.77,1.38-.24.19-.5.37-.75.54-.41.29-.82.57-1.24.84-.23.16-.47.3-.7.44l-.11.07c-.79.49-1.6.94-2.39,1.33l-.61.3-.64.29-.81.34-.32.12c-.32.13-.64.25-1,.36s-.81.27-1.21.38l-.84.22-.06,0c-.28.07-.55.13-.83.18l-.22,0c-.23,0-.46.08-.69.11s-.65.09-1,.11l-.33,0-.77,0h0l-.76,0-.29,0c-.23,0-.46,0-.71-.07l-.16,0-.91-.15c-.26,0-.52-.1-.79-.16a23.44,23.44,0,0,1-4.28-1.44,31.29,31.29,0,0,1-3.74-2l-.21-.13c-.55-.34-1.12-.71-1.66-1.09l-.93-.67q-1.46-1.06-2.88-2.32l-.78-.72-.77-.72c-.6-.58-1.19-1.17-1.75-1.8l-.11-.11-.71-.78c-.65-.73-1.29-1.49-1.89-2.28-.24-.29-.46-.58-.68-.87q-1.24-1.64-2.34-3.42l-.58-1c-.23-.38-.45-.77-.67-1.17-.32-.57-.62-1.15-.91-1.74-.47-.92-.91-1.87-1.31-2.83-.1-.23-.2-.46-.28-.69s-.24-.6-.35-.89c0-.14-.11-.28-.15-.42q-.17-.44-.32-.88c-.15-.43-.29-.87-.42-1.31s-.25-.85-.37-1.28-.25-.92-.36-1.4c0,0,0-.1,0-.15s0,0,0,0c-.16-.64-.29-1.29-.41-1.94,0-.24-.09-.49-.12-.74-.11-.64-.2-1.29-.27-1.94,0-.29-.07-.57-.09-.86s-.06-.6-.07-.9c0-.55-.07-1.1-.08-1.66,0-.33,0-.64,0-1V44.21A33.23,33.23,0,0,1,72.82,11h.09l.69,0,1,0h0l1.05,0h.07l.73,0h0l.34,0,.73.06.36,0,.24,0a34.05,34.05,0,0,1,3.81.63,32.74,32.74,0,0,1,6.22,2.08c1,.44,1.93.92,2.86,1.45s1.61,1,2.37,1.49,1.5,1.08,2.21,1.66l.82.69h0a32.25,32.25,0,0,1,4.3,4.53,33,33,0,0,1,7.06,20.19C107.86,44,107.86,44.11,107.86,44.21Z"/><path class="cls-4" d="M77.66,18.87A36.22,36.22,0,0,1,41.43,55.1V41.89a33.06,33.06,0,0,1,9.28-23Z"/><path class="cls-4" d="M107.86,41.89V59.15A49.82,49.82,0,0,1,71.58,39c-4.25-5.79-8-20.53-11.93-14-3.3,5.51-10-5.76-10-6.12L67,9.36,91.09,13q1.22.7,2.37,1.49c.77.52,1.5,1.08,2.21,1.66l.82.69h0a32.25,32.25,0,0,1,4.3,4.53,33,33,0,0,1,7.06,20.19C107.86,41.69,107.86,41.79,107.86,41.89Z"/><path class="cls-4" d="M67.68,16,51.37,22.48,39.54,38V55.1H42.8l21-17.48L72,30.18h4.69L99.09,51.94s11.42-.33,11.42-.83-3.67-20.92-3.67-20.92L94,20.15,76,14.82,68.91,16Z"/><path class="cls-8" d="M116,36H33.32c.25-.55.52-1.09.8-1.63a50.67,50.67,0,0,1,4.31-6.92l.42-.57c.65-.86,1.34-1.69,2-2.5a2.88,2.88,0,0,1,.53,0h66.45a2.88,2.88,0,0,1,.53,0c.7.81,1.39,1.64,2,2.5l.42.57a49.89,49.89,0,0,1,4.31,6.92C115.45,34.91,115.72,35.46,116,36Z"/><circle class="cls-4" cx="59.65" cy="67.44" r="10.02"/><circle class="cls-4" cx="89.35" cy="67.44" r="10.02"/><path class="cls-4" d="M81.11,67.44H79.3a4.82,4.82,0,0,0-9.63,0h-1.8a6.62,6.62,0,0,1,13.23,0Z"/><path class="cls-7" d="M74.64,35a4.77,4.77,0,1,1,4.77-4.77A4.78,4.78,0,0,1,74.64,35Zm0-8.57a3.79,3.79,0,1,0,3.79,3.79A3.8,3.8,0,0,0,74.64,26.42Z"/><rect class="cls-7" x="74.16" y="25.93" width="0.98" height="8.57"/><rect class="cls-7" x="75.67" y="29.59" width="0.98" height="4.28" transform="translate(-0.13 63.14) rotate(-45)"/><rect class="cls-7" x="70.99" y="31.24" width="4.28" height="0.98" transform="translate(-1.03 60.96) rotate(-44.97)"/><path class="cls-9" d="M67,9.36A44.59,44.59,0,0,0,44.47,20.71a47.69,47.69,0,0,0-3.58,3.68c-.7.81-1.39,1.64-2,2.5l-.42.57a50.67,50.67,0,0,0-4.31,6.92c-.28.54-.55,1.08-.8,1.63a50.58,50.58,0,0,0-2.41,6.13c-.2.6-.38,1.22-.55,1.84a53.22,53.22,0,0,0-2,14.4,52.34,52.34,0,0,0,6.27,25,10.83,10.83,0,0,0-.55,3.46A10.52,10.52,0,0,0,35,91.22,11,11,0,0,0,35,100a11,11,0,0,0,0,8.82,11,11,0,0,0,0,8.83,10.51,10.51,0,0,0-.92,4.41c0,3.17,1.26,5.87,3,7l-2.93,9.66h2.34c-.34.62-.67,1.26-1,1.9l-.07.16c-.33.69-.65,1.4-.94,2.12h0q-.48,1.16-.88,2.35a43.06,43.06,0,0,0-2.31,14H74.62V8.68A42.94,42.94,0,0,0,67,9.36Zm-24.54,121c-.29.32-.57.64-.86,1l-.69-2.26c1.78-1.14,3-3.85,3-7a10.51,10.51,0,0,0-.92-4.41,11,11,0,0,0,0-8.83A11,11,0,0,0,43,100a10.52,10.52,0,0,0,.92-4.41v-.1a44.82,44.82,0,0,0,22.45,11.74,25.84,25.84,0,0,1-1.9,3.87A26.62,26.62,0,0,1,61.75,115,27.27,27.27,0,0,1,58,118.61l0,0h0l-.64.51,0,0h0l-.6.43-.27.2-.66.45-.69.43-.19.11-.84.49h0c-.78.42-1.55.87-2.3,1.35l-.33.2c-.86.55-1.7,1.13-2.52,1.74a42.27,42.27,0,0,0-4.59,4l-.08.07-.86.88C43,129.78,42.71,130.08,42.44,130.39Z"/></g><path class="cls-4" d="M107.54,59.12l.4,0s2.18-14.63,2.06-14.59-4.83.17-4.83.58S107.54,59.12,107.54,59.12Z"/></g></g></g></svg>