<svg xmlns="http://www.w3.org/2000/svg" xmlns:xlink="http://www.w3.org/1999/xlink" viewBox="0 0 149.29 156.82"><defs><style>.cls-1{fill:#90c7e6;}.cls-2{isolation:isolate;}.cls-3{clip-path:url(#clip-path);}.cls-4{fill:#dfb28b;}.cls-5{fill:#141720;}.cls-6{fill:#543e36;}.cls-7{fill:#1a1a1a;}.cls-8{fill:#fff;}.cls-9{fill:#eb6d4a;}.cls-10{fill:#ecc19c;opacity:0.5;mix-blend-mode:multiply;}</style><clipPath id="clip-path"><circle class="cls-1" cx="74.64" cy="74.64" r="74.64"/></clipPath></defs><title>img-avatar-slug-8</title><g class="cls-2"><g id="Layer_2" data-name="Layer 2"><g id="Layer_4" data-name="Layer 4"><circle class="cls-1" cx="74.64" cy="74.64" r="74.64"/><g class="cls-3"><path class="cls-4" d="M117.89,156.81H31.35a43.11,43.11,0,0,1,12.77-30.69c.36-.36.72-.7,1.09-1l0,0a42.61,42.61,0,0,1,3.56-3c.82-.61,1.66-1.18,2.52-1.74s1.74-1.08,2.64-1.57l0,0c.35-.2.69-.39,1-.6a25,25,0,0,0,2.93-2l0,0,.11-.09a27.38,27.38,0,0,0,8.57-12h0a27.22,27.22,0,0,0,1.6-9.23l6.35,0,6.44,0a27.31,27.31,0,0,0,1.56,9.14h0A27.25,27.25,0,0,0,91.17,116h0l.1.09.06,0c.27.22.55.43.82.64s.77.56,1.17.82.6.39.9.57.68.41,1,.6l.08,0,.07,0c1,.55,2,1.14,2.93,1.76.32.2.64.42.95.64s.82.59,1.22.9h0a43.34,43.34,0,0,1,17.38,34.66Z"/><path class="cls-4" d="M107.83,37.14V64.22c0,18.62-13.23,34.38-25.19,39.7a20.11,20.11,0,0,1-8,1.93h0A20,20,0,0,1,66.69,104c-12-5.29-25.28-21.07-25.28-39.74V37.14Z"/><path class="cls-5" d="M107.7,61a4.37,4.37,0,0,0,.09-.64V61Z"/><path class="cls-5" d="M41.44,61V59.63A7.11,7.11,0,0,0,41.56,61Z"/><path class="cls-5" d="M107.82,59.63a6.26,6.26,0,0,1,0,.68V59A6,6,0,0,1,107.82,59.63Z"/><path class="cls-6" d="M105,30c0,.52,0,1,0,15,0,1.21,0,2.5,0,3.92a8.88,8.88,0,0,0-3.43-6c-3.08-2.61-8-4.28-13.44-4.28A22,22,0,0,0,75.89,42a12.34,12.34,0,0,0-1.26.95A12.34,12.34,0,0,0,73.38,42a22.11,22.11,0,0,0-12.23-3.36A22.17,22.17,0,0,0,48.93,42c-2.89,1.94-4.67,4.58-4.67,7.48,0-1.86,0-3.54,0-5.06,0-13.46,0-13.91,0-14.41,0-.35,0-.72,0-1.1H105C105,29.26,105,29.63,105,30Z"/><path class="cls-6" d="M44.37,39.16V58a3,3,0,0,1-2.8,3h-.16V39.16Z"/><path class="cls-6" d="M107.82,61h0a3,3,0,0,1-3-3V39.16h3Z"/><path class="cls-6" d="M107.82,38.35V42l-1.48,3.77L105,44.93l-.11-.07-3.31-2c-3.09-2.61-8-4.28-13.45-4.28A22.06,22.06,0,0,0,75.89,42h-2.5a22.13,22.13,0,0,0-12.23-3.36A22.19,22.19,0,0,0,48.93,42H45.7L44.37,44.2l-.11.19L41.57,48.9,41.41,42c0-1.48,0-2.31,0-2.81v-.82c0-.38,0-.78,0-1.21.42-9.56,5.82-27.43,33.2-27.43h0c27.35,0,32.75,17.87,33.17,27.43C107.82,37.56,107.82,38,107.82,38.35Z"/><path class="cls-7" d="M102.51,49.3a.27.27,0,0,0-.23-.27,85.07,85.07,0,0,0-11.57-.86c-6.14,0-14.07,1.93-15.45,1.93H74c-.64,0-2.71-.42-5.35-.86a64.24,64.24,0,0,0-10.1-1.06,87.81,87.81,0,0,0-9.89.63c-.8.1-1.38.18-1.68.23a.26.26,0,0,0-.23.27l-.07,3.3a.3.3,0,0,0,.17.26l.38.13c.56.2.51,10.16,3.48,12.64,1.76,1.47,3.34,2.3,9.94,2.3,3.83,0,6.23-1,8.52-4.11,1.65-2.22,3.11-7.45,3.11-7.45A2.61,2.61,0,0,1,74.58,54h.07A2.57,2.57,0,0,1,77,56.38s1.46,5.23,3.1,7.45c2.28,3.08,4.7,4.11,8.53,4.11,6.61,0,8.18-.83,9.94-2.3,3-2.49,2.91-12.44,3.48-12.64l.38-.13a.3.3,0,0,0,.17-.26ZM69.2,61.08c-1,2.3-3.48,5.27-7,5.45-10.6.53-11.09-2.43-11.77-4.77a16.13,16.13,0,0,1-.6-6.75c.28-2.35.86-3.73,1.93-4.41A4.83,4.83,0,0,1,54,49.82a44.46,44.46,0,0,1,5.84-.26,30,30,0,0,1,4.72.36c3.77.6,6.32,1.89,6.32,3.15A23.53,23.53,0,0,1,69.2,61.08Zm29.68.68c-.69,2.34-1.17,5.3-11.77,4.77-3.54-.18-6.05-3.15-7-5.45a23.66,23.66,0,0,1-1.65-8c0-1.74,4.83-3.51,11-3.51s7.2.46,8.07,1c1.06.69,1.66,2.06,1.93,4.41A16.27,16.27,0,0,1,98.88,61.75Z"/><path class="cls-6" d="M54.47,79.53c3.11,5.89,10.76,8.66,17.67,5.6,2.92-1.28,3.79-4.72,2.3-5.6h0c-1.47-.88-3.58-.09-5,1.09A10.86,10.86,0,0,1,54.47,79.53Z"/><path class="cls-6" d="M94.82,79.6c-3.11,5.89-10.76,8.66-17.67,5.6-2.92-1.28-3.79-4.72-2.3-5.6h0c1.47-.88,3.58-.09,5,1.09A10.86,10.86,0,0,0,94.82,79.6Z"/><path class="cls-8" d="M91.33,115.94c0,.06,0,.11-.06.16a0,0,0,0,1,0,0A53.4,53.4,0,0,1,74.64,140,53.38,53.38,0,0,1,58,116.13l0,0,0-.16.13,0,0,0h0l.15.12a24.79,24.79,0,0,0,32.76,0l.15-.13h0Z"/><path class="cls-9" d="M104.08,125.13v31.69H45.21V125.07l0,0a42.61,42.61,0,0,1,3.56-3c.82-.61,1.66-1.18,2.52-1.74s1.74-1.08,2.64-1.57l0,0c.35-.2.69-.39,1-.6a25,25,0,0,0,2.93-2l0,0,.11-.09v.13h.15a24.79,24.79,0,0,0,32.76,0h.15V116l.1.09.06,0c.27.22.55.43.82.64s.77.56,1.17.82.6.39.9.57.68.41,1,.6l.08,0,.07,0c1,.55,2,1.14,2.93,1.76.32.2.64.42.95.64s.82.59,1.22.9h0A43,43,0,0,1,104.08,125.13Z"/><path class="cls-10" d="M74.64,9.71V156.82H31.35a43.11,43.11,0,0,1,12.77-30.69c.36-.36.72-.7,1.09-1l0,0a42.61,42.61,0,0,1,3.56-3c.82-.61,1.66-1.18,2.52-1.74s1.74-1.08,2.64-1.57l0,0c.35-.2.69-.39,1-.6a25,25,0,0,0,2.93-2l0,0,0-.16.13,0,0,0a27.38,27.38,0,0,0,8.57-12h0c-12-5.29-25.28-21.07-25.28-39.74V37.14h0c.42-9.56,5.82-27.43,33.2-27.43Z"/></g></g></g></g></svg>