<svg xmlns="http://www.w3.org/2000/svg" xmlns:xlink="http://www.w3.org/1999/xlink" viewBox="0 0 149.29 168"><defs><style>.cls-1{fill:#eb6d4a;}.cls-2{isolation:isolate;}.cls-3{clip-path:url(#clip-path);}.cls-11,.cls-4{fill:#ecc19c;}.cls-5{fill:#c7d4e2;}.cls-6{fill:#1a1a1a;}.cls-7{fill:#435363;}.cls-8{fill:#e7ecf2;}.cls-9{fill:#543e36;}.cls-10{fill:#141720;}.cls-11{opacity:0.5;mix-blend-mode:multiply;}</style><clipPath id="clip-path"><circle class="cls-1" cx="74.64" cy="74.64" r="74.64"/></clipPath></defs><title>img-avatar-slug-9</title><g class="cls-2"><g id="Layer_2" data-name="Layer 2"><g id="Layer_13" data-name="Layer 13"><circle class="cls-1" cx="74.64" cy="74.64" r="74.64"/><g class="cls-3"><path class="cls-4" d="M107.86,41.89V66.69c0,.31,0,.62,0,.93v.15c0,.42,0,.83-.07,1.25,0,.14,0,.28,0,.42s0,.1,0,.14,0,.27,0,.4,0,.44-.07.66a.4.4,0,0,1,0,.1.48.48,0,0,1,0,.11c0,.11,0,.21,0,.31s0,.16,0,.25a.81.81,0,0,1,0,.13c-.06.49-.12,1-.2,1.46l-.07.44c0,.14,0,.28-.07.42v0c-.07.33-.12.67-.2,1a1.52,1.52,0,0,1,0,.2c0,.07,0,.13,0,.19l0,.11a.35.35,0,0,1,0,0c0,.16-.07.33-.11.49a.22.22,0,0,1,0,.1.36.36,0,0,1,0,.08.15.15,0,0,1,0,.07c0,.16-.07.32-.11.47v0a4.61,4.61,0,0,1-.12.45v0c-.16.66-.36,1.31-.56,2v0c-.1.31-.2.61-.3.92l0,.1-.29.83-.1.25c-.1.26-.2.52-.3.78s-.25.63-.38.94-.24.55-.36.83l-.06.14c-.14.29-.27.59-.41.87s-.29.6-.44.91c-.29.6-.61,1.19-.93,1.77l-.44.78a48,48,0,0,1-4.17,6.07q-.31.4-.64.78c-.3.37-.61.73-.92,1.08s-.55.62-.84.92l-.59.62c-.6.61-1.2,1.2-1.8,1.75-.16.16-.33.31-.51.46s-.55.5-.84.73-.45.38-.68.57c-.59.48-1.17.95-1.77,1.38-.24.19-.5.37-.75.54-.41.29-.82.57-1.24.84-.23.16-.47.3-.7.44-.83.51-1.67,1-2.5,1.4l-.61.3-.64.29-.81.34-.32.12c-.32.13-.64.25-1,.36s-.81.27-1.21.38l-.84.22-.06,0c-.28.07-.55.13-.83.18l-.22,0c-.23,0-.46.08-.69.11s-.65.09-1,.11l-.33,0-.77,0h0l-.75,0-.29,0c-.23,0-.46,0-.71-.07l-.16,0-.91-.15c-.26,0-.52-.1-.79-.16a23.44,23.44,0,0,1-4.28-1.44,31.29,31.29,0,0,1-3.74-2c-.63-.38-1.26-.79-1.88-1.22l-.93-.67q-1.46-1.06-2.88-2.32l-.78-.72-.77-.72q-1-.92-1.86-1.91l-.71-.78c-.65-.73-1.29-1.49-1.89-2.28-.24-.29-.46-.58-.68-.87q-1.24-1.64-2.34-3.42l-.58-1c-.23-.38-.45-.77-.67-1.17a44.57,44.57,0,0,1-2.22-4.57c-.1-.23-.2-.46-.28-.69s-.24-.6-.35-.89-.32-.86-.46-1.3-.29-.87-.42-1.31-.25-.85-.37-1.28-.24-.91-.35-1.37a0,0,0,0,1,0,0s0-.1,0-.15q-.23-1-.42-2c-.16-.88-.29-1.78-.39-2.68,0-.29-.07-.57-.09-.86s-.06-.6-.07-.9c0-.55-.07-1.1-.08-1.66,0-.35,0-.69,0-1V41.89A33.17,33.17,0,0,1,74.61,8.68h0A33.62,33.62,0,0,1,82,9.49,33.3,33.3,0,0,1,100.79,21.4a33.06,33.06,0,0,1,6.6,14.87A33.47,33.47,0,0,1,107.86,41.89Z"/><path class="cls-4" d="M117.92,159.29H31.37a43.06,43.06,0,0,1,2.31-14q.4-1.19.88-2.35h0c.31-.78.65-1.53,1-2.28a42.8,42.8,0,0,1,5.27-8.4c.52-.64,1.05-1.27,1.6-1.88.27-.31.55-.61.84-.91l.86-.88h0c.73-.73,1.48-1.43,2.27-2.1l1-.83h0l.07,0,.11-.1c.41-.32.81-.64,1.22-.95l1.21-.86,0,0,.29-.2c.17-.12.35-.24.52-.34h0l.46-.3c.43-.28.86-.54,1.31-.8s.89-.51,1.34-.76a0,0,0,0,1,0,0h0l.75-.43.29-.17c.33-.2.68-.42,1-.64s.62-.42.91-.64l.07,0,.25-.19c.24-.16.46-.34.69-.53h0c.35-.29.7-.57,1-.88a.33.33,0,0,0,.08-.07c.33-.29.67-.6,1-.92l.66-.67a26.41,26.41,0,0,0,2.47-3,27.25,27.25,0,0,0,3.47-6.6v0h0a27.3,27.3,0,0,0,1.6-9.24l6.3,0h0l6.49,0a27.31,27.31,0,0,0,1.56,9.14h0A27.08,27.08,0,0,0,86.1,113a27.36,27.36,0,0,0,5.26,5.59h0c.24.2.49.4.73.58l.16.12q.44.33.91.64l.19.13.27.18a3.15,3.15,0,0,0,.35.22l.28.17.39.24.63.36a.83.83,0,0,1,.15.07l1.07.61c.36.2.7.42,1.05.64l.5.32.37.24h0l0,0,.1.07.26.18q.75.49,1.47,1l.25.18h0c.41.31.82.62,1.22.95l.07,0,.06,0,.42.35c.6.49,1.17,1,1.74,1.53.39.36.78.73,1.16,1.1h0c.49.49,1,1,1.44,1.5s.93,1,1.37,1.57A43,43,0,0,1,117.92,159.29Z"/><path class="cls-5" d="M117.92,159.29H31.37a43.06,43.06,0,0,1,2.31-14q.4-1.19.88-2.35h0c.31-.78.65-1.53,1-2.28a42.8,42.8,0,0,1,5.27-8.4c.52-.64,1.05-1.27,1.6-1.88.27-.31.55-.61.84-.91l.86-.88c.73-.73,1.48-1.43,2.27-2.1l1-.83.07-.06.11-.09c.41-.33.81-.64,1.22-.95s.82-.6,1.25-.89l.82-.55.46-.3c.43-.28.86-.55,1.31-.81s.89-.51,1.34-.76a0,0,0,0,1,0,0h0l.75-.43.29-.16c.34-.2.68-.42,1-.64s.62-.42.91-.64l.07,0,.25-.19.21-.17.47-.37h0a23.21,23.21,0,0,0,6.76,4.8,22.56,22.56,0,0,0,6.85,2,4.11,4.11,0,0,0,.46.07q.86.1,1.74.12l.82,0h.07l.8,0a17.25,17.25,0,0,0,1.73-.11,4.55,4.55,0,0,0,.48-.07,22.72,22.72,0,0,0,6.84-2,23.47,23.47,0,0,0,6.83-4.83h0c.24.2.49.39.73.58l.16.12c.29.22.6.44.91.64l.19.13.27.17a3.15,3.15,0,0,0,.35.22l.28.18.39.23.63.36a.83.83,0,0,1,.15.07l1.07.61,1.05.64.5.31.37.25,0,0,.1.07,0,0c.66.42,1.31.88,1.93,1.36h0c.41.31.82.62,1.22.95l.07,0,.06,0h0l.42.35c1,.83,2,1.72,2.9,2.64.49.49,1,1,1.44,1.5s.92,1,1.37,1.57A43,43,0,0,1,117.92,159.29Z"/><path class="cls-6" d="M69.1,51.65h0a10,10,0,1,0,.69,3.68v0A10.07,10.07,0,0,0,69.1,51.65ZM59.75,63.71a8.4,8.4,0,1,1,8.33-9.51v0a8.26,8.26,0,0,1,.07,1.11A8.42,8.42,0,0,1,59.75,63.71Z"/><path class="cls-6" d="M89.47,45.28a10,10,0,0,0-9.33,6.38v0a9.94,9.94,0,0,0-.69,3.63v0a10,10,0,1,0,10-10Zm0,18.43a8.41,8.41,0,0,1-8.39-8.39v0l.07-1a.35.35,0,0,1,0-.09,8.4,8.4,0,1,1,8.31,9.54Z"/><path class="cls-6" d="M81.15,54.17a.35.35,0,0,0,0,.09l-.07,1v0H79.44v0a4.83,4.83,0,0,0-9.66,0H68.15a8.28,8.28,0,0,0-.07-1.11,6.42,6.42,0,0,1,1-2.56,6.61,6.61,0,0,1,11,0l0,0A6.62,6.62,0,0,1,81.15,54.17Z"/><path class="cls-7" d="M50.89,123.12V168H47.42V125.65l.07,0,.11-.09h0c.41-.32.81-.64,1.22-.95l1.21-.86,0,0h0l.29-.2Z"/><polygon class="cls-7" points="98.41 123.13 98.41 159.28 98.41 168 101.87 168 101.87 159.28 101.87 125.66 98.41 123.13"/><path class="cls-8" d="M74.64,120.32l0,0v0l-.56.94h0l-2.1,3.53-.34.57-.69,1.16-.24.41a4.71,4.71,0,0,1-7.87.34l-5.76-8h0l.47-.35.47-.38h0c.36-.29.7-.57,1-.88a.33.33,0,0,0,.08-.07c.33-.29.67-.6,1-.92s.45-.44.66-.67a26.41,26.41,0,0,0,2.47-3l11.37,7.24h0Z"/><path class="cls-8" d="M92.26,119.32l-5.77,8a4.71,4.71,0,0,1-7.87-.34h0l-3.95-6.62,0-.06L86.09,113a27.36,27.36,0,0,0,5.26,5.59C91.66,118.86,92,119.1,92.26,119.32Z"/><path class="cls-9" d="M107.85,66.71c0,.36,0,.72,0,1.08,0,.55,0,1.11-.08,1.66,0,.19,0,.38,0,.56s0,.22,0,.33l0,.31,0,.2a.48.48,0,0,1,0,.11l0,.46a.81.81,0,0,1,0,.13c-.06.49-.12,1-.2,1.46l-.07.44-.07.43c-.07.33-.12.67-.2,1,0,.07,0,.14,0,.2s0,.13,0,.19l0,0a.16.16,0,0,1,0,.07.35.35,0,0,1,0,0c0,.16-.07.33-.11.49a.22.22,0,0,1,0,.1.36.36,0,0,1,0,.08.15.15,0,0,1,0,.07.06.06,0,0,1,0,0,4.46,4.46,0,0,1-.12.47,1.07,1.07,0,0,1,0,.22c0,.07,0,.14,0,.2v0c-.17.66-.37,1.31-.56,2v0c-.1.31-.2.61-.3.92l0,.1-.29.83-.1.25c-.1.26-.2.52-.3.78s-.25.63-.38.94-.24.55-.36.83l-.06.14c-.14.29-.27.59-.41.87s-.29.6-.44.91c-.29.6-.61,1.19-.93,1.77l-.44.78a48,48,0,0,1-4.17,6.07q-.31.4-.64.78c-.3.37-.61.73-.92,1.08s-.55.62-.84.92l-.59.62c-.6.62-1.2,1.21-1.81,1.77-.16.16-.33.31-.51.47s-.55.5-.84.73-.45.38-.68.57c-.59.48-1.17.95-1.77,1.38-.24.19-.5.37-.75.54-.41.29-.82.57-1.24.84-.23.16-.47.3-.7.44-.83.51-1.67,1-2.5,1.39l-.61.3-.62.29h0l-.81.34-.32.12c-.32.13-.64.25-1,.36s-.81.27-1.21.38l-.84.22-.06,0c-.28.07-.55.13-.83.18l-.22,0c-.23,0-.46.08-.69.11s-.65.09-1,.11l-.33,0-.77,0h0l-.76,0-.29,0c-.23,0-.46,0-.71-.07l-.16,0-.91-.15c-.26,0-.52-.1-.79-.16a23.44,23.44,0,0,1-4.28-1.44,31.29,31.29,0,0,1-3.74-2c-.63-.38-1.25-.78-1.88-1.22l-.93-.67q-1.46-1.06-2.88-2.32l-.78-.72-.77-.72q-1-.92-1.86-1.91l-.71-.78c-.65-.73-1.29-1.49-1.89-2.28-.24-.29-.46-.58-.68-.87q-1.24-1.64-2.34-3.42l-.58-1c-.23-.38-.45-.78-.67-1.17a44.57,44.57,0,0,1-2.22-4.57c-.1-.23-.2-.46-.28-.69s-.24-.6-.35-.89-.32-.86-.46-1.3-.29-.87-.42-1.31-.25-.85-.37-1.28-.25-.92-.36-1.4c0,0,0-.1,0-.15q-.23-1-.42-2c-.16-.88-.29-1.78-.39-2.68,0-.29-.07-.57-.09-.86s-.06-.6-.07-.9c0-.55-.07-1.1-.08-1.66,0-.36,0-.72,0-1.08v0l5.29,10.41,9.11,4,10.78,1h0l8,.73h0l7.47.68h0L98.81,85Z"/><path class="cls-9" d="M74.68,71.95v8h0V92.36h0l0,0L42.54,76h0s0-.1,0-.15q-.23-1-.42-2c-.16-.88-.29-1.78-.39-2.68,0-.29-.07-.57-.09-.86s-.06-.6-.07-.9c0-.55-.07-1.1-.08-1.66,0-.36,0-.72,0-1.08V57c0,.14,0,.28,0,.42A32.47,32.47,0,0,0,42.6,65a32.94,32.94,0,0,0,2.08,5.6h0c2.14,4.45,5,7.46,7.64,8l.5.06a28.69,28.69,0,0,0,3.19.18c4.16,0,7.86-3.34,10.18-4.7l0,0,.35-.22.1-.06a16.5,16.5,0,0,1,7.93-1.84Z"/><path class="cls-9" d="M107.86,57v9.75a39.94,39.94,0,0,1-.65,7.17c-.17.93-.37,1.85-.6,2.77L99.08,87.52,74.65,92.36h0l0-20.41h.07a16.54,16.54,0,0,1,7.94,1.84l.09.06.36.22,0,0c2.33,1.35,6,4.7,10.18,4.7a28.71,28.71,0,0,0,3.19-.18l.51-.06c2.63-.49,5.5-3.51,7.63-8h0a32.94,32.94,0,0,0,2.08-5.6,32.12,32.12,0,0,0,1.17-7.71C107.86,57.16,107.86,57.07,107.86,57Z"/><ellipse class="cls-4" cx="74.64" cy="82.5" rx="8.14" ry="2.52"/><path class="cls-9" d="M107.86,41.89v9.28c-2.72-4.8-4.15-9.59-4.18-13.53-5.8,4-16.64,6.77-29.07,6.79h-.1c-12.47,0-23.35-2.73-29.16-6.79A28.76,28.76,0,0,1,41.43,50.7V41.89A33.17,33.17,0,0,1,74.61,8.68h0A33.62,33.62,0,0,1,82,9.49,33.3,33.3,0,0,1,100.79,21.4a33.06,33.06,0,0,1,6.6,14.87A33.47,33.47,0,0,1,107.86,41.89Z"/><path class="cls-10" d="M74.05,125.53l-7.15,2.4a1.63,1.63,0,0,1-2.15-1.55v-5.93a1.63,1.63,0,0,1,2.15-1.55l7.15,2.4Z"/><path class="cls-10" d="M75.23,125.53l7.15,2.4a1.63,1.63,0,0,0,2.15-1.55v-5.93a1.63,1.63,0,0,0-2.15-1.55l-7.15,2.4Z"/><rect class="cls-10" x="71.95" y="120.32" width="5.39" height="6.21" rx="2" ry="2"/><path class="cls-11" d="M74.61,8.68V159.29H50.89V168H47.42v-8.71h-16a43.06,43.06,0,0,1,2.31-14q.4-1.19.88-2.35h0c.31-.78.65-1.53,1-2.28a42.8,42.8,0,0,1,5.27-8.4c.52-.64,1.05-1.27,1.6-1.88.27-.31.55-.61.84-.91l.86-.88h0c.73-.73,1.48-1.43,2.27-2.1l1-.83h0l.07,0,.11-.1c.41-.32.81-.64,1.22-.95l1.21-.86,0,0,.29-.2.52-.35.46-.3c.43-.28.86-.54,1.31-.8s.89-.51,1.34-.76a0,0,0,0,1,0,0h0l.75-.43.29-.17c.33-.2.68-.42,1-.64s.62-.42.91-.64l.07,0h0l.47-.35.47-.38h0c.35-.29.7-.57,1-.88a.33.33,0,0,0,.08-.07c.33-.29.67-.6,1-.92l.66-.67a26.41,26.41,0,0,0,2.47-3,27.25,27.25,0,0,0,3.47-6.6,31.29,31.29,0,0,1-3.74-2c-.63-.38-1.25-.78-1.88-1.22l-.93-.67q-1.46-1.06-2.88-2.32l-.78-.72-.77-.72q-1-.92-1.86-1.91l-.71-.78c-.65-.73-1.29-1.49-1.89-2.28-.24-.29-.46-.58-.68-.87q-1.24-1.64-2.34-3.42l-.58-1c-.23-.38-.45-.78-.67-1.17a44.57,44.57,0,0,1-2.22-4.57c-.1-.23-.2-.46-.28-.69s-.24-.6-.35-.89-.32-.86-.46-1.3-.29-.87-.42-1.31-.25-.85-.37-1.28-.25-.92-.36-1.4c0,0,0-.1,0-.15q-.23-1-.42-2c-.16-.88-.29-1.78-.39-2.68,0-.29-.07-.57-.09-.86s-.06-.6-.07-.9c0-.55-.07-1.1-.08-1.66,0-.36,0-.72,0-1.08V57c0,.14,0,.28,0,.42V41.89A33.17,33.17,0,0,1,74.61,8.68Z"/></g></g></g></g></svg>