<svg xmlns="http://www.w3.org/2000/svg" xmlns:xlink="http://www.w3.org/1999/xlink" viewBox="0 0 149.29 159.29"><defs><style>.cls-1{fill:#a875a4;}.cls-2{isolation:isolate;}.cls-3{clip-path:url(#clip-path);}.cls-4{fill:#e6e7e1;}.cls-5,.cls-8{fill:#f0d0b4;}.cls-6{fill:#a0d888;}.cls-7{fill:#fff;}.cls-8{opacity:0.5;mix-blend-mode:multiply;}</style><clipPath id="clip-path"><circle class="cls-1" cx="74.64" cy="74.64" r="74.64"/></clipPath></defs><title>img-avatar-slug-4</title><g class="cls-2"><g id="Layer_2" data-name="Layer 2"><g id="Layer_6" data-name="Layer 6"><circle class="cls-1" cx="74.64" cy="74.64" r="74.64"/><g class="cls-3"><path class="cls-4" d="M120.91,58.36a52.3,52.3,0,0,1-6.44,25.32,50.39,50.39,0,0,1-7,9.68c-.78.84-1.59,1.66-2.42,2.44A44.83,44.83,0,0,1,83,107.25a43.16,43.16,0,0,1-4.85.67h0c-1.13.09-2.28.14-3.44.14h-.06c-1.15,0-2.3,0-3.43-.14h0a44,44,0,0,1-4.78-.65A44.82,44.82,0,0,1,43.94,95.53c-.78-.74-1.54-1.52-2.28-2.32a50.39,50.39,0,0,1-7-9.86,52.35,52.35,0,0,1-6.27-25,53.23,53.23,0,0,1,2-14.4c.17-.62.36-1.23.55-1.84A50.55,50.55,0,0,1,33.32,36c.25-.55.52-1.09.8-1.63a50.69,50.69,0,0,1,4.31-6.92l.42-.57c.65-.86,1.34-1.69,2-2.5a47.67,47.67,0,0,1,3.58-3.68A44.59,44.59,0,0,1,67,9.36a42.94,42.94,0,0,1,7.64-.69h.06a44.21,44.21,0,0,1,30.14,12,47.71,47.71,0,0,1,3.58,3.68c.7.81,1.39,1.64,2,2.5l.42.57a49.89,49.89,0,0,1,4.31,6.92c.28.54.55,1.09.8,1.63a50.59,50.59,0,0,1,2.41,6.13c.2.6.38,1.22.55,1.84A53.22,53.22,0,0,1,120.91,58.36Z"/><path class="cls-5" d="M117.92,159.29H31.37a43.1,43.1,0,0,1,2-13.1l0-.13c.08-.25.15-.5.24-.74s.22-.64.34-1,.25-.67.38-1c0-.13.1-.27.16-.4h0c.07-.2.15-.38.24-.57l.42-1,.27-.58.07-.16c0-.07.07-.14.11-.2.26-.58.55-1.14.86-1.7.2-.37.4-.73.61-1.09.48-.85,1-1.68,1.55-2.5.23-.34.46-.69.72-1,.45-.64.93-1.28,1.42-1.89l.49-.59c.08-.11.16-.21.25-.31.29-.33.56-.66.86-1l.26-.29.15-.17.42-.46c.29-.29.56-.58.86-.87h0l.08-.07.54-.51.5-.47.09-.08c.54-.5,1.09-1,1.66-1.45l.88-.72.94-.72c.41-.3.82-.6,1.25-.89s.83-.57,1.26-.85l.33-.2c.33-.2.65-.41,1-.6s.87-.51,1.32-.76h0l.52-.29.31-.2.19-.11h0c.36-.21.7-.44,1-.67l.44-.3c.24-.16.49-.34.73-.52h0l0,0c.22-.15.44-.32.65-.49h0l.06,0,.1-.09a27.06,27.06,0,0,0,3.61-3.5,26.61,26.61,0,0,0,2.74-3.83,25.85,25.85,0,0,0,1.9-3.87c.12-.28.23-.55.33-.83a26.33,26.33,0,0,0,.77-2.55c.16-.61.29-1.23.41-1.86a27.69,27.69,0,0,0,.42-4.83l6.31,0h1.13l5.35,0a27.53,27.53,0,0,0,.41,4.74c.11.64.24,1.26.41,1.88a25.48,25.48,0,0,0,.74,2.51c.1.29.2.57.33.86a25.62,25.62,0,0,0,1.89,3.89,26.31,26.31,0,0,0,2.46,3.51,26,26,0,0,0,3.87,3.83.49.49,0,0,0,.1.09l0,0h0l0,0a6.66,6.66,0,0,0,.55.43,1.47,1.47,0,0,0,.19.15l.07,0,0,0,0,0,0,0,0,0,0,0c.33.25.69.5,1,.73s.6.39.9.57l.83.49.19.11a.74.74,0,0,1,.14.07l.27.15q1,.53,1.86,1.1c.24.14.47.29.69.44l.3.21c.34.21.67.44,1,.68s.66.47,1,.73h0c.78.59,1.55,1.21,2.29,1.85a1.82,1.82,0,0,1,.27.23c.26.22.51.45.77.69a2,2,0,0,1,.2.18c.33.31.67.63,1,1s.68.66,1,1,.42.45.63.68.53.59.78.89.6.69.89,1.05.5.63.73.95.51.68.76,1,.49.69.73,1,.41.6.6.91.36.57.53.86c.36.6.7,1.21,1,1.82s.71,1.34,1,2a41.85,41.85,0,0,1,2.14,5.44c.1.29.19.6.28.91.16.53.3,1.06.43,1.6.07.24.12.49.18.73s0,.2.07.29c.08.35.16.7.22,1.06s.12.6.17.91.11.57.15.86c0,.09,0,.17,0,.26s.07.44.09.66.07.58.11.87.07.66.1,1,.06.58.07.87C117.89,157.26,117.92,158.27,117.92,159.29Z"/><path class="cls-5" d="M107.86,44.21V66.8c0,.33,0,.64,0,1s0,.58,0,.87,0,.52,0,.78,0,.38,0,.56,0,.22,0,.33,0,.42-.07.62c0,.39-.08.78-.14,1.17,0,.1,0,.2,0,.29s-.06.39-.09.59v0a.55.55,0,0,0,0,.11c0,.24-.09.49-.13.73s-.15.78-.23,1.17l0,0a1.27,1.27,0,0,1,0,.17l0,0c0,.17-.07.34-.11.51l0,.11a1.62,1.62,0,0,1-.07.27c0,.15-.07.29-.1.44s0,.17-.07.25,0,.15-.06.21c-.17.67-.37,1.32-.57,2-.1.31-.2.61-.3.92l0,.1-.28.79,0,0-.1.25c-.1.26-.2.52-.3.78s-.25.63-.38.94-.24.55-.36.83l-.06.14c-.14.29-.27.59-.41.87s-.29.6-.44.91l0,0c-.29.58-.6,1.17-.91,1.73l-.44.78a48,48,0,0,1-4.17,6.07q-.31.4-.64.78c-.3.37-.61.73-.92,1.08s-.53.6-.81.88l0,0c-.78.84-1.58,1.64-2.4,2.39-.16.16-.33.31-.51.46s-.55.5-.84.73-.45.38-.68.57c-.59.48-1.17.95-1.77,1.38-.24.19-.5.37-.75.54-.41.29-.82.57-1.24.84-.23.16-.47.3-.7.44l-.11.07c-.79.49-1.6.94-2.39,1.33l-.61.3-.64.29-.81.34-.32.12c-.32.13-.64.25-1,.36s-.81.27-1.21.38l-.84.22-.06,0c-.28.07-.55.13-.83.18l-.22,0c-.23,0-.46.08-.69.11s-.65.09-1,.11l-.33,0-.77,0h0l-.76,0-.29,0c-.23,0-.46,0-.71-.07l-.16,0-.91-.15c-.26,0-.52-.1-.79-.16a23.44,23.44,0,0,1-4.28-1.44,31.29,31.29,0,0,1-3.74-2l-.21-.13c-.55-.34-1.12-.71-1.66-1.09l-.93-.67q-1.46-1.06-2.88-2.32l-.78-.72-.77-.72c-.6-.58-1.19-1.17-1.75-1.8l-.11-.11-.71-.78c-.65-.73-1.29-1.49-1.89-2.28-.24-.29-.46-.58-.68-.87q-1.24-1.64-2.34-3.42l-.58-1c-.23-.38-.45-.77-.67-1.17-.32-.57-.62-1.15-.91-1.74-.47-.92-.91-1.87-1.31-2.83-.1-.23-.2-.46-.28-.69s-.24-.6-.35-.89c0-.14-.11-.28-.15-.42q-.17-.44-.32-.88c-.15-.43-.29-.87-.42-1.31s-.25-.85-.37-1.28-.25-.92-.36-1.4c0,0,0-.1,0-.15s0,0,0,0c-.16-.64-.29-1.29-.41-1.94,0-.24-.09-.49-.12-.74-.11-.64-.2-1.29-.27-1.94,0-.29-.07-.57-.09-.86s-.06-.6-.07-.9c0-.55-.07-1.1-.08-1.66,0-.33,0-.64,0-1V44.21A33.23,33.23,0,0,1,72.82,11h.09l.69,0,1,0h0l1.05,0h.07l.73,0h0l.34,0,.73.06.36,0,.24,0a34.05,34.05,0,0,1,3.81.63,32.74,32.74,0,0,1,6.22,2.08c1,.44,1.93.92,2.86,1.45s1.61,1,2.37,1.49,1.5,1.08,2.21,1.66l.82.69h0a32.25,32.25,0,0,1,4.3,4.53,33,33,0,0,1,7.06,20.19C107.86,44,107.86,44.11,107.86,44.21Z"/><path class="cls-4" d="M77.66,18.87A36.22,36.22,0,0,1,41.43,55.1V41.89a33.06,33.06,0,0,1,9.28-23Z"/><path class="cls-4" d="M107.86,41.89V59.15A49.82,49.82,0,0,1,71.58,39c-4.25-5.79-8-20.53-11.93-14-3.3,5.51-10-5.76-10-6.12L67,9.36,91.09,13q1.22.7,2.37,1.49c.77.52,1.5,1.08,2.21,1.66l.82.69h0a32.25,32.25,0,0,1,4.3,4.53,33,33,0,0,1,7.06,20.19C107.86,41.69,107.86,41.79,107.86,41.89Z"/><path class="cls-4" d="M67.68,16,51.37,22.48,39.54,38V55.1H42.8l21-17.48L72,30.18h4.69L99.09,51.94s11.42-.33,11.42-.83-3.67-20.92-3.67-20.92L94,20.15,76,14.82,68.91,16Z"/><path class="cls-6" d="M117.92,159.29H31.38A43.39,43.39,0,0,1,34,144.35c.12-.33.25-.67.38-1s.26-.65.4-1l.42-1,.27-.58.18-.37c.28-.57.56-1.14.86-1.7.2-.37.4-.73.61-1.09q1.05-1.81,2.27-3.52c.6-.85,1.25-1.68,1.91-2.48.45-.54.91-1.06,1.37-1.57l.15-.17c.42-.45.85-.9,1.29-1.33l.08-.08.54-.51.5-.47c.56-.52,1.15-1,1.75-1.53l.88-.72.94-.72c.41-.3.82-.6,1.25-.89s.85-.56,1.27-.84.86-.55,1.31-.81.88-.51,1.34-.76h0l.52-.29.5-.3h0a25,25,0,0,0,2.93-2l.1.09a23.25,23.25,0,0,0,16.58,6.93h0a23.29,23.29,0,0,0,16.58-6.92l.1-.1,0,0c.26.22.53.42.8.62l0,0,0,0,.09.06c.33.25.69.5,1,.73s.6.39.9.57l.83.49.19.11.08,0,.07,0,.25.15q1,.53,1.86,1.1c.24.14.47.29.69.44l.12.08c.32.2.64.42.95.64l.24.17c.33.24.66.47,1,.73h0c.78.59,1.55,1.2,2.29,1.85a1.82,1.82,0,0,1,.27.23c.26.22.51.45.77.69a2,2,0,0,1,.2.18c.33.31.67.63,1,1s.68.66,1,1,.42.45.63.68.53.59.78.89.6.69.89,1.05.5.63.73.95.51.68.76,1,.49.69.73,1,.41.6.6.91.36.57.53.86a39.5,39.5,0,0,1,2.07,3.84,41.85,41.85,0,0,1,2.14,5.44c.1.29.19.6.28.91.16.53.3,1.06.43,1.6.07.24.12.49.18.73s0,.2.07.29c.08.35.16.7.22,1.06s.12.6.17.91.11.57.15.86c0,.09,0,.17,0,.26s.07.44.09.66.07.58.11.87.07.66.1,1,.06.58.07.87C117.89,157.26,117.92,158.27,117.92,159.29Z"/><path class="cls-7" d="M91.37,118.42a1.19,1.19,0,0,1-.06.16h0a.89.89,0,0,1,0,.14,53.47,53.47,0,0,1-16.59,23.74,53.36,53.36,0,0,1-16.58-23.76l0-.13h0l0-.15.13,0h0a24.8,24.8,0,0,0,33.06,0h0Z"/><path class="cls-8" d="M74.68,8.67V159.29H31.37a43.1,43.1,0,0,1,2-13.1l0-.13c.08-.25.15-.5.24-.74s.22-.64.34-1,.25-.67.38-1c0-.13.1-.27.16-.4h0c.07-.2.15-.38.24-.57l.42-1,.27-.58.07-.16c0-.07.07-.14.11-.2.26-.58.55-1.14.86-1.7.2-.37.4-.73.61-1.09.48-.85,1-1.68,1.55-2.5.23-.34.46-.69.72-1,.45-.64.93-1.28,1.42-1.89l.49-.59c.08-.11.16-.21.25-.31.29-.33.56-.66.86-1l.26-.29.15-.17.42-.46c.29-.29.56-.58.86-.87h0l.08-.07.54-.51.5-.47.09-.08c.54-.5,1.09-1,1.66-1.45l.88-.72.94-.72c.41-.3.82-.6,1.25-.89s.83-.57,1.26-.85l.33-.2c.33-.2.65-.41,1-.6s.87-.51,1.32-.76h0l.52-.29.31-.2.19-.11h0c.36-.21.7-.44,1-.67l.44-.3c.24-.16.49-.34.73-.52h0l0,0c.22-.15.44-.32.65-.49h0l.06,0,0-.15.13,0h0a27.06,27.06,0,0,0,3.61-3.5,26.61,26.61,0,0,0,2.74-3.83,25.85,25.85,0,0,0,1.9-3.87A44.82,44.82,0,0,1,43.94,95.53c-.78-.74-1.54-1.52-2.28-2.32a50.39,50.39,0,0,1-7-9.86,52.35,52.35,0,0,1-6.27-25,53.23,53.23,0,0,1,2-14.4c.17-.62.36-1.23.55-1.84A50.55,50.55,0,0,1,33.32,36c.25-.55.52-1.09.8-1.63a50.69,50.69,0,0,1,4.31-6.92l.42-.57c.65-.86,1.34-1.69,2-2.5a47.67,47.67,0,0,1,3.58-3.68A44.59,44.59,0,0,1,67,9.36a42.94,42.94,0,0,1,7.64-.69Z"/></g></g></g></g></svg>