<svg xmlns="http://www.w3.org/2000/svg" xmlns:xlink="http://www.w3.org/1999/xlink" viewBox="0 0 149.29 161.04"><defs><style>.cls-1{fill:#9994d0;}.cls-2{isolation:isolate;}.cls-3{clip-path:url(#clip-path);}.cls-4{fill:#a57561;}.cls-5{fill:#e6e7e1;}.cls-6{fill:#141720;}.cls-7{fill:#e4b69d;opacity:0.5;mix-blend-mode:multiply;}</style><clipPath id="clip-path"><circle class="cls-1" cx="74.64" cy="74.64" r="74.64"/></clipPath></defs><title>img-avatar-slug-2</title><g class="cls-2"><g id="Layer_2" data-name="Layer 2"><g id="Layer_10" data-name="Layer 10"><circle class="cls-1" cx="74.64" cy="74.64" r="74.64"/><g class="cls-3"><path class="cls-4" d="M117.88,161H31.34a43.11,43.11,0,0,1,12.77-30.69c.37-.37.73-.72,1.12-1.07.56-.52,1.15-1,1.75-1.53s1.2-1,1.82-1.43c.82-.61,1.66-1.18,2.52-1.74S53.05,123.49,54,123l0,0c.35-.2.69-.39,1-.6a25,25,0,0,0,2.93-2,27.43,27.43,0,0,0,8.73-12.17h0a27.22,27.22,0,0,0,1.6-9.23l6.33,0h0l6.44,0a27.25,27.25,0,0,0,10.25,21.36h0c.27.22.55.43.82.64s.78.56,1.17.82.6.39.9.57.68.41,1,.6l.08,0,.07,0c1,.55,2,1.14,2.93,1.76.32.2.64.42.95.64s.82.59,1.22.9h0A43.15,43.15,0,0,1,117.88,161Z"/><path class="cls-5" d="M117.88,161H31.34a43.11,43.11,0,0,1,12.77-30.69c.37-.37.73-.72,1.12-1.07.56-.52,1.15-1,1.75-1.53s1.2-1,1.82-1.44c.82-.6,1.66-1.18,2.52-1.73S53.05,123.49,54,123l0,0c.35-.2.69-.39,1-.6a25,25,0,0,0,2.93-2,23.28,23.28,0,0,0,16.66,7h0a23.3,23.3,0,0,0,16.67-7c.27.22.55.43.82.64s.78.56,1.17.82.6.39.9.57.68.41,1,.6l.08,0,.07,0c1,.55,2,1.14,2.93,1.77.32.2.64.42.95.64s.82.59,1.22.9h0A43.15,43.15,0,0,1,117.88,161Z"/><path class="cls-4" d="M107.82,41.35V68.43c0,.36,0,.72,0,1.08l0,.66q0,.59-.07,1.17c-1.27,17.34-13.75,31.75-25.08,36.8a20.24,20.24,0,0,1-8,1.92h0a20.1,20.1,0,0,1-7.93-1.88h0c-11.35-5-23.89-19.45-25.17-36.83q0-.59-.07-1.17l0-.66c0-.36,0-.72,0-1.08V41.35Z"/><path class="cls-4" d="M91.33,120.35a53.35,53.35,0,0,1-16.69,24,53.33,53.33,0,0,1-16.68-24l.13,0a24.81,24.81,0,0,0,33.1,0Z"/><path class="cls-6" d="M103.78,51c.87,5.69-11.48,11.57-27.59,13.14S46.32,62.4,45.45,56.72,56.94,45.15,73,43.58,102.91,45.34,103.78,51Z"/><path class="cls-6" d="M107.82,41.35v8.33H41.4V41.35h0c.3-7.06,3.33-18.63,15.89-24.22a42.24,42.24,0,0,1,17.29-3.21h0c7.16,0,12.82,1.22,17.28,3.21,12.56,5.59,15.58,17.16,15.88,24.22Z"/><path class="cls-6" d="M61.31,54.29l-.76,0a19.1,19.1,0,0,0-13.31,5.38h0a19.09,19.09,0,0,0-5.72,11.67q0-.59-.07-1.17l0-.66c0-.36,0-.72,0-1.08V41.35H55.55a19.18,19.18,0,0,1,3.62,4.87,18.82,18.82,0,0,1,2.14,8.07Z"/><path class="cls-6" d="M87.92,54.29l.76,0a19.15,19.15,0,0,1,19,17.07c.08-1,.11-1.93.11-2.91V41.35H93.68A19.06,19.06,0,0,0,87.92,54.29Z"/><path class="cls-6" d="M92.31,20.65c0,9.23-7.92,16.72-17.69,16.72S56.93,29.88,56.93,20.65a16.12,16.12,0,0,1,.39-3.52C59,9.59,66.12,3.93,74.61,3.93s15.59,5.65,17.3,13.2A16.12,16.12,0,0,1,92.31,20.65Z"/><path class="cls-7" d="M74.61,3.93V161H31.34a43.11,43.11,0,0,1,12.77-30.69c.37-.37.73-.72,1.12-1.07.56-.52,1.15-1,1.75-1.53s1.2-1,1.82-1.44c.82-.6,1.66-1.18,2.52-1.73S53.05,123.49,54,123l0,0c.35-.2.69-.39,1-.6a25,25,0,0,0,2.93-2,27.43,27.43,0,0,0,8.73-12.17h0c-11.35-5-23.89-19.45-25.17-36.83q0-.59-.07-1.17l0-.66c0-.36,0-.72,0-1.08V41.35h0c.3-7.06,3.33-18.63,15.89-24.22C59,9.59,66.12,3.93,74.61,3.93Z"/></g></g></g></g></svg>